<svg width="31" height="31" viewBox="0 0 31 31" fill="none" xmlns="http://www.w3.org/2000/svg">
<path fill-rule="evenodd" clip-rule="evenodd" d="M15.6992 30.3291C23.9835 30.3291 30.6992 23.6134 30.6992 15.3291C30.6992 7.0448 23.9835 0.329102 15.6992 0.329102C7.41495 0.329102 0.699219 7.0448 0.699219 15.3291C0.699219 23.6134 7.41495 30.3291 15.6992 30.3291ZM7.88477 10.5156C7.88477 8.85876 9.22791 7.51562 10.8848 7.51562H20.5123C22.1691 7.51562 23.5123 8.85876 23.5123 10.5156V20.1431C23.5123 21.8 22.1691 23.1431 20.5123 23.1431H10.8848C9.22791 23.1431 7.88477 21.8 7.88477 20.1431V10.5156ZM9.01172 15.3293C9.01172 11.6364 12.0055 8.64258 15.6985 8.64258C19.3915 8.64258 22.3853 11.6364 22.3853 15.3293C22.3853 19.0223 19.3915 22.0161 15.6985 22.0161C12.0055 22.0161 9.01172 19.0223 9.01172 15.3293Z" fill="#29D391"/>
</svg>
