<svg width="31" height="31" viewBox="0 0 31 31" fill="none" xmlns="http://www.w3.org/2000/svg">
<path fill-rule="evenodd" clip-rule="evenodd" d="M30.6992 15.6846C30.6992 23.9689 23.9835 30.6846 15.6992 30.6846C7.41495 30.6846 0.699219 23.9689 0.699219 15.6846C0.699219 7.40027 7.41495 0.68457 15.6992 0.68457C23.9835 0.68457 30.6992 7.40027 30.6992 15.6846ZM15.6991 24.5173L10.5253 19.3435L10.5259 19.3425C7.66844 16.485 7.66845 11.8522 10.5259 8.99469C13.3834 6.13721 18.0163 6.13721 20.8738 8.99463C23.7313 11.8522 23.7313 16.485 20.8738 19.3425L15.6991 24.5173ZM15.7008 17.5084C15.2866 17.5084 14.9508 17.1726 14.9508 16.7584V14.8477H13.0371C12.6229 14.8477 12.2871 14.5118 12.2871 14.0977C12.2871 13.6835 12.6229 13.3477 13.0371 13.3477H14.9508V11.4365C14.9508 11.0223 15.2866 10.6865 15.7008 10.6865C16.115 10.6865 16.4508 11.0223 16.4508 11.4365V13.3477H18.359C18.7732 13.3477 19.109 13.6835 19.109 14.0977C19.109 14.5118 18.7732 14.8477 18.359 14.8477H16.4508V16.7584C16.4508 17.1726 16.115 17.5084 15.7008 17.5084Z" fill="#93D30B"/>
</svg>
