<svg width="31" height="31" viewBox="0 0 31 31" fill="none" xmlns="http://www.w3.org/2000/svg">
<path fill-rule="evenodd" clip-rule="evenodd" d="M15.0176 30.3755C23.3019 30.3755 30.0176 23.6598 30.0176 15.3755C30.0176 7.09122 23.3019 0.375488 15.0176 0.375488C6.73331 0.375488 0.0175781 7.09122 0.0175781 15.3755C0.0175781 23.6598 6.73331 30.3755 15.0176 30.3755ZM19.7273 17.8905C19.8573 17.7606 19.9303 17.5844 19.9303 17.4006V16.7482V14.1382V12.8335C19.9303 12.6497 19.8573 12.4735 19.7273 12.3436C19.5974 12.2136 19.4212 12.1406 19.2374 12.1406L10.7959 12.1407C10.5566 12.1407 10.322 12.0959 10.1031 12.0111V17.4006C10.1031 17.5844 10.1761 17.7606 10.306 17.8905C10.436 18.0204 10.6122 18.0934 10.7959 18.0934H19.2374C19.4212 18.0934 19.5974 18.0204 19.7273 17.8905ZM20.593 18.7562C20.9525 18.3966 21.1544 17.909 21.1544 17.4006V12.8335C21.1544 12.325 20.9525 11.8374 20.593 11.4779C20.2335 11.1184 19.7459 10.9165 19.2374 10.9165H19.1971V10.2236C19.1971 9.71522 18.9951 9.22763 18.6356 8.86812C18.2761 8.50861 17.7885 8.30664 17.2801 8.30664L10.7959 8.30664C10.2875 8.30664 9.79989 8.50861 9.44038 8.86812C9.08088 9.22763 8.87891 9.71522 8.87891 10.2236V17.4006C8.87891 17.909 9.08088 18.3966 9.44038 18.7562C9.79989 19.1157 10.2875 19.3176 10.7959 19.3176H19.2374C19.7459 19.3176 20.2335 19.1157 20.593 18.7562ZM10.7959 10.9165H17.9729V10.2236C17.9729 10.0399 17.8999 9.86368 17.77 9.73376C17.64 9.60383 17.4638 9.53084 17.2801 9.53084H10.7959C10.6122 9.53084 10.436 9.60383 10.306 9.73376C10.1761 9.86368 10.1031 10.0399 10.1031 10.2236C10.1031 10.4074 10.1761 10.5836 10.306 10.7135C10.436 10.8435 10.6122 10.9165 10.7959 10.9165ZM17.9122 15.96C18.3328 15.96 18.6738 15.619 18.6738 15.1984C18.6738 14.7778 18.3328 14.4368 17.9122 14.4368C17.4915 14.4368 17.1505 14.7778 17.1505 15.1984C17.1505 15.619 17.4915 15.96 17.9122 15.96ZM15.0149 25.2419L18.713 20.7834H11.3168L15.0149 25.2419Z" fill="#1D91F8"/>
</svg>
