<svg width="31" height="31" viewBox="0 0 31 31" fill="none" xmlns="http://www.w3.org/2000/svg">
<path fill-rule="evenodd" clip-rule="evenodd" d="M15.0156 30.7383C23.2999 30.7383 30.0156 24.0226 30.0156 15.7383C30.0156 7.45401 23.2999 0.738281 15.0156 0.738281C6.73135 0.738281 0.015625 7.45401 0.015625 15.7383C0.015625 24.0226 6.73135 30.7383 15.0156 30.7383ZM19.7273 16.8181C19.8573 16.6882 19.9302 16.512 19.9302 16.3282V15.6758V13.0658V11.7611C19.9302 11.5773 19.8573 11.4011 19.7273 11.2712C19.5974 11.1413 19.4212 11.0683 19.2374 11.0683H10.7959C10.5566 11.0683 10.322 11.0235 10.1031 10.9387V16.3283C10.1031 16.512 10.1761 16.6882 10.306 16.8181C10.436 16.9481 10.6122 17.0211 10.7959 17.0211H19.2374C19.4212 17.0211 19.5974 16.9481 19.7273 16.8181ZM20.593 17.6838C20.9525 17.3243 21.1544 16.8367 21.1544 16.3282V11.7611C21.1544 11.2527 20.9525 10.7651 20.593 10.4056C20.2335 10.046 19.7459 9.84408 19.2374 9.84408H19.1971V9.15127C19.1971 8.64285 18.9951 8.15525 18.6356 7.79574C18.2761 7.43624 17.7885 7.23427 17.2801 7.23427H10.7959C10.2875 7.23427 9.79989 7.43624 9.44038 7.79574C9.08088 8.15525 8.87891 8.64285 8.87891 9.15127V16.3283C8.87891 16.8367 9.08088 17.3243 9.44038 17.6838C9.79989 18.0433 10.2875 18.2453 10.7959 18.2453H19.2374C19.7459 18.2453 20.2335 18.0433 20.593 17.6838ZM10.7959 9.84408H17.9729V9.15127C17.9729 8.96753 17.8999 8.79131 17.77 8.66138C17.64 8.53146 17.4638 8.45847 17.2801 8.45847H10.7959C10.6122 8.45847 10.436 8.53146 10.306 8.66138C10.1761 8.79131 10.1031 8.96753 10.1031 9.15127C10.1031 9.33502 10.1761 9.51123 10.306 9.64116C10.436 9.77108 10.6122 9.84408 10.7959 9.84408ZM17.9123 14.8881C18.3329 14.8881 18.6739 14.5471 18.6739 14.1265C18.6739 13.7059 18.3329 13.3649 17.9123 13.3649C17.4917 13.3649 17.1507 13.7059 17.1507 14.1265C17.1507 14.5471 17.4917 14.8881 17.9123 14.8881ZM15.0148 19.7839L18.7129 24.2423H11.3167L15.0148 19.7839Z" fill="#29D391"/>
</svg>
