<svg width="31" height="31" viewBox="0 0 31 31" fill="none" xmlns="http://www.w3.org/2000/svg">
<path fill-rule="evenodd" clip-rule="evenodd" d="M15.0176 28.1138C22.1973 28.1138 28.0176 22.2935 28.0176 15.1138C28.0176 7.93407 22.1973 2.11377 15.0176 2.11377C7.83788 2.11377 2.01758 7.93407 2.01758 15.1138C2.01758 22.2935 7.83788 28.1138 15.0176 28.1138ZM15.0176 30.1138C23.3018 30.1138 30.0176 23.398 30.0176 15.1138C30.0176 6.8295 23.3018 0.11377 15.0176 0.11377C6.73331 0.11377 0.0175781 6.8295 0.0175781 15.1138C0.0175781 23.398 6.73331 30.1138 15.0176 30.1138Z" fill="url(#paint0_linear_6085_4362)"/>
<path d="M15.0179 6.55722L8.88086 13.9561L21.155 13.9561L15.0179 6.55722Z" fill="#29D391"/>
<path d="M15.0172 23.6703L21.1543 16.2715L8.88012 16.2715L15.0172 23.6703Z" fill="#1D91F8"/>
<defs>
<linearGradient id="paint0_linear_6085_4362" x1="15.0176" y1="0.11377" x2="15.0176" y2="30.1138" gradientUnits="userSpaceOnUse">
<stop stop-color="#29D391"/>
<stop offset="1" stop-color="#1D91F8"/>
</linearGradient>
</defs>
</svg>
