<svg width="31" height="31" viewBox="0 0 31 31" fill="none" xmlns="http://www.w3.org/2000/svg">
<path fill-rule="evenodd" clip-rule="evenodd" d="M15.0176 30.3242C23.3018 30.3242 30.0176 23.6085 30.0176 15.3242C30.0176 7.03995 23.3018 0.324219 15.0176 0.324219C6.73331 0.324219 0.0175781 7.03995 0.0175781 15.3242C0.0175781 23.6085 6.73331 30.3242 15.0176 30.3242ZM6.51172 15.3243C8.4253 12.0463 11.5221 9.9165 15.0169 9.9165C18.5117 9.9165 21.6085 12.0463 23.5221 15.3243C21.6085 18.6023 18.5117 20.7321 15.0169 20.7321C11.5221 20.7321 8.4253 18.6022 6.51172 15.3243ZM17.8373 15.3242C17.8373 16.8816 16.5747 18.1442 15.0173 18.1442C13.4598 18.1442 12.1973 16.8816 12.1973 15.3242C12.1973 13.7667 13.4598 12.5042 15.0173 12.5042C16.5747 12.5042 17.8373 13.7667 17.8373 15.3242Z" fill="#FCC945"/>
</svg>
