<svg width="31" height="31" viewBox="0 0 31 31" fill="none" xmlns="http://www.w3.org/2000/svg">
<path fill-rule="evenodd" clip-rule="evenodd" d="M15.0176 30.2578C23.3018 30.2578 30.0176 23.5421 30.0176 15.2578C30.0176 6.97354 23.3018 0.257812 15.0176 0.257812C6.73331 0.257812 0.0175781 6.97354 0.0175781 15.2578C0.0175781 23.5421 6.73331 30.2578 15.0176 30.2578ZM21.3984 9.42157C21.4338 9.57097 21.4269 9.72725 21.3785 9.87294L17.2837 22.1595C17.2328 22.3118 17.1388 22.446 17.0129 22.5457C16.8871 22.6455 16.7349 22.7065 16.575 22.7212C16.4151 22.736 16.2544 22.7039 16.1124 22.6289C15.9705 22.5539 15.8534 22.4391 15.7755 22.2987L13.6857 18.5381C13.5984 18.3808 13.5647 18.1994 13.5897 18.0213C13.6148 17.8433 13.6971 17.6782 13.8243 17.5511L16.4986 14.8768C16.6538 14.7217 16.7409 14.5112 16.7409 14.2918C16.7409 14.0724 16.6538 13.8619 16.4986 13.7067C16.3434 13.5516 16.133 13.4644 15.9135 13.4644C15.6941 13.4644 15.4837 13.5516 15.3285 13.7067L12.6543 16.381C12.5272 16.5082 12.3621 16.5906 12.184 16.6156C12.0059 16.6406 11.8245 16.6069 11.6673 16.5196L7.90602 14.4304C7.76564 14.3525 7.65098 14.2353 7.57605 14.0932C7.50112 13.9512 7.46914 13.7904 7.48403 13.6305C7.49892 13.4706 7.56002 13.3185 7.65989 13.1927C7.75975 13.0669 7.89406 12.9729 8.04643 12.9222L20.3324 8.82688C20.4781 8.77847 20.6344 8.77155 20.7838 8.80689C20.9332 8.84224 21.0698 8.91845 21.1783 9.027C21.2869 9.13556 21.3631 9.27217 21.3984 9.42157Z" fill="#A667F6"/>
</svg>
