<svg width="31" height="31" viewBox="0 0 31 31" fill="none" xmlns="http://www.w3.org/2000/svg">
<path fill-rule="evenodd" clip-rule="evenodd" d="M15.0176 30.1914C23.3018 30.1914 30.0176 23.4757 30.0176 15.1914C30.0176 6.90714 23.3018 0.191406 15.0176 0.191406C6.73331 0.191406 0.0175781 6.90714 0.0175781 15.1914C0.0175781 23.4757 6.73331 30.1914 15.0176 30.1914ZM10.3604 9.52835C10.3604 9.26319 10.2551 9.00888 10.0677 8.82135C9.88013 8.63388 9.62582 8.52856 9.36066 8.52856C9.09549 8.52856 8.84118 8.63388 8.65366 8.82135C7.81792 9.65708 7.15497 10.6492 6.70267 11.7412C6.25037 12.8331 6.01758 14.0034 6.01758 15.1854C6.01758 16.3673 6.25037 17.5376 6.70267 18.6295C7.15497 19.7215 7.81792 20.7136 8.65366 21.5494C8.7459 21.6449 8.85625 21.721 8.97825 21.7735C9.10026 21.8259 9.23148 21.8534 9.36425 21.8546C9.49703 21.8558 9.62871 21.8305 9.75161 21.7802C9.87451 21.7299 9.98616 21.6556 10.0801 21.5617C10.1739 21.4679 10.2482 21.3562 10.2985 21.2333C10.3488 21.1104 10.3741 20.9787 10.3729 20.8459C10.3718 20.7132 10.3442 20.5819 10.2918 20.4599C10.2393 20.3379 10.1632 20.2276 10.0677 20.1354C9.41757 19.4853 8.90189 18.7136 8.55006 17.8643C8.19823 17.015 8.01715 16.1047 8.01715 15.1854C8.01715 14.266 8.19823 13.3557 8.55006 12.5064C8.90189 11.6571 9.41757 10.8854 10.0677 10.2354C10.2551 10.0478 10.3604 9.79352 10.3604 9.52835ZM20.6747 8.52856C20.4095 8.52856 20.1552 8.63388 19.9677 8.82135C19.7802 9.00888 19.6749 9.26319 19.6749 9.52835C19.6749 9.79352 19.7802 10.0478 19.9677 10.2354C20.6177 10.8854 21.1334 11.6571 21.4853 12.5064C21.8371 13.3557 22.0182 14.266 22.0182 15.1854C22.0182 16.1047 21.8371 17.015 21.4853 17.8643C21.1334 18.7136 20.6177 19.4853 19.9677 20.1354C19.8721 20.2276 19.796 20.3379 19.7436 20.4599C19.6911 20.5819 19.6636 20.7132 19.6624 20.8459C19.6613 20.9787 19.6866 21.1104 19.7368 21.2333C19.7871 21.3562 19.8614 21.4679 19.9553 21.5617C20.0492 21.6556 20.1608 21.7299 20.2837 21.7802C20.4066 21.8305 20.5383 21.8558 20.6711 21.8546C20.8038 21.8534 20.9351 21.8259 21.0571 21.7735C21.1791 21.721 21.2894 21.6449 21.3817 21.5494C22.2174 20.7136 22.8803 19.7215 23.3326 18.6295C23.7849 17.5376 24.0177 16.3673 24.0177 15.1854C24.0177 14.0034 23.7849 12.8331 23.3326 11.7412C22.8803 10.6492 22.2174 9.65708 21.3817 8.82135C21.1941 8.63388 20.9398 8.52856 20.6747 8.52856ZM13.1894 12.3564C13.1894 12.0912 13.0841 11.8369 12.8967 11.6494V11.6504C12.8038 11.5574 12.6935 11.4836 12.5721 11.4333C12.4507 11.383 12.3206 11.3571 12.1892 11.3571C12.0577 11.3571 11.9276 11.383 11.8062 11.4333C11.6848 11.4836 11.5745 11.5574 11.4817 11.6504C10.5443 12.588 10.0177 13.8595 10.0177 15.1854C10.0177 16.5112 10.5443 17.7827 11.4817 18.7204C11.5745 18.8133 11.6847 18.887 11.8061 18.9373C11.9274 18.9876 12.0575 19.0135 12.1888 19.0136C12.3202 19.0136 12.4502 18.9878 12.5716 18.9376C12.693 18.8873 12.8032 18.8137 12.8962 18.7208C12.9891 18.628 13.0628 18.5178 13.1131 18.3964C13.1634 18.2751 13.1893 18.1451 13.1894 18.0137C13.1894 17.8824 13.1636 17.7523 13.1134 17.6309C13.0631 17.5095 12.9895 17.3993 12.8967 17.3064C12.618 17.0278 12.397 16.697 12.2462 16.333C12.0954 15.969 12.0178 15.5789 12.0178 15.1849C12.0178 14.7908 12.0954 14.4007 12.2462 14.0367C12.397 13.6727 12.618 13.3419 12.8967 13.0634C13.0841 12.8758 13.1894 12.6215 13.1894 12.3564ZM17.4632 11.4323C17.3418 11.4826 17.2315 11.5564 17.1387 11.6494C17.0457 11.7422 16.9719 11.8525 16.9216 11.9739C16.8713 12.0953 16.8454 12.2254 16.8454 12.3569C16.8454 12.4883 16.8713 12.6184 16.9216 12.7398C16.9719 12.8612 17.0457 12.9715 17.1387 13.0644C17.7011 13.6269 18.017 14.3899 18.017 15.1854C18.017 15.9808 17.7011 16.7438 17.1387 17.3064C16.951 17.494 16.8456 17.7485 16.8456 18.0139C16.8456 18.2792 16.951 18.5337 17.1387 18.7214C17.3263 18.909 17.5808 19.0144 17.8462 19.0144C18.1115 19.0144 18.366 18.909 18.5537 18.7214C19.0181 18.257 19.3865 17.7058 19.6379 17.0991C19.8892 16.4924 20.0186 15.8421 20.0186 15.1854C20.0186 14.5286 19.8892 13.8783 19.6379 13.2716C19.3865 12.6649 19.0181 12.1137 18.5537 11.6494C18.4608 11.5564 18.3505 11.4826 18.2291 11.4323C18.1077 11.382 17.9776 11.3561 17.8462 11.3561C17.7147 11.3561 17.5846 11.382 17.4632 11.4323ZM15.7248 14.4782C15.5372 14.2907 15.2829 14.1854 15.0177 14.1854C14.7524 14.1854 14.4981 14.2907 14.3105 14.4782C14.123 14.6658 14.0177 14.9201 14.0177 15.1854V15.1954C14.0177 15.4606 14.123 15.7149 14.3105 15.9025C14.4981 16.09 14.7524 16.1954 15.0177 16.1954C15.2829 16.1954 15.5372 16.09 15.7248 15.9025C15.9123 15.7149 16.0177 15.4606 16.0177 15.1954V15.1854C16.0177 14.9201 15.9123 14.6658 15.7248 14.4782Z" fill="#1D91F8"/>
</svg>
