<svg width="31" height="30" viewBox="0 0 31 30" fill="none" xmlns="http://www.w3.org/2000/svg">
<path fill-rule="evenodd" clip-rule="evenodd" d="M28.0176 15C28.0176 22.1797 22.1973 28 15.0176 28C7.83788 28 2.01758 22.1797 2.01758 15C2.01758 7.82031 7.83788 2 15.0176 2C22.1973 2 28.0176 7.82031 28.0176 15ZM30.0176 15C30.0176 23.2843 23.3018 30 15.0176 30C6.73331 30 0.0175781 23.2843 0.0175781 15C0.0175781 6.7157 6.73331 0 15.0176 0C23.3018 0 30.0176 6.7157 30.0176 15ZM20.6171 9.0564C20.355 8.79431 19.9301 8.79431 19.668 9.0564L18.4264 10.298C17.3572 9.84045 16.2102 9.59216 15.0169 9.59216C11.5221 9.59216 8.4253 11.7219 6.51172 14.9999C7.41809 16.5525 8.58993 17.8475 9.94378 18.7806L8.86866 19.8558C8.60658 20.1179 8.60658 20.5428 8.86866 20.8049C9.13076 21.067 9.55569 21.067 9.81778 20.8049L10.1535 20.4686L11.1377 19.485L13.349 17.2737L17.2911 13.3315L19.6748 10.9479L20.6171 10.0055C20.6226 10 20.628 9.99451 20.6332 9.98889C20.8791 9.72571 20.8737 9.31299 20.6171 9.0564ZM15.0169 20.4077C13.9728 20.4077 12.9642 20.2177 12.012 19.8636L14.1816 17.694C14.4457 17.7758 14.7263 17.8198 15.0173 17.8198C16.5747 17.8198 17.8373 16.5573 17.8373 14.9998C17.8373 14.7089 17.7932 14.4282 17.7114 14.1642L20.4195 11.4561C21.6344 12.3665 22.6901 13.5747 23.5221 14.9999C21.6085 18.2778 18.5117 20.4077 15.0169 20.4077ZM16.2579 12.4666C15.8835 12.283 15.4624 12.1798 15.0173 12.1798C13.4598 12.1798 12.1973 13.4424 12.1973 14.9998C12.1973 15.4449 12.3004 15.866 12.4841 16.2404L16.2579 12.4666Z" fill="#FCC945"/>
</svg>
