<svg width="31" height="31" viewBox="0 0 31 31" fill="none" xmlns="http://www.w3.org/2000/svg">
<path fill-rule="evenodd" clip-rule="evenodd" d="M15.0176 30.665C23.3018 30.665 30.0176 23.9493 30.0176 15.665C30.0176 7.38074 23.3018 0.665039 15.0176 0.665039C6.73331 0.665039 0.0175781 7.38074 0.0175781 15.665C0.0175781 23.9493 6.73331 30.665 15.0176 30.665ZM10.913 8.29755C10.7337 8.11829 10.4905 8.01758 10.237 8.01758C9.98346 8.01758 9.74031 8.11829 9.56104 8.29755C9.38176 8.47687 9.28105 8.71997 9.28105 8.97351V9.9295H8.32509C8.07156 9.9295 7.82841 10.0302 7.64913 10.2095C7.46986 10.3887 7.36914 10.6319 7.36914 10.8854C7.36914 11.139 7.46986 11.3821 7.64913 11.5614C7.82841 11.7407 8.07156 11.8414 8.32509 11.8414H9.28105V12.7974C9.28105 13.0509 9.38176 13.294 9.56104 13.4733C9.74031 13.6526 9.98346 13.7533 10.237 13.7533C10.4905 13.7533 10.7337 13.6526 10.913 13.4733C11.0922 13.294 11.193 13.0509 11.193 12.7974V11.8414H12.1489C12.4024 11.8414 12.6456 11.7407 12.8249 11.5614C13.0041 11.3821 13.1049 11.139 13.1049 10.8854C13.1049 10.6319 13.0041 10.3887 12.8249 10.2095C12.6456 10.0302 12.4024 9.9295 12.1489 9.9295H11.193V8.97351C11.193 8.71997 11.0922 8.47687 10.913 8.29755ZM10.913 17.8571C10.7337 17.6778 10.4905 17.5771 10.237 17.5771C9.98346 17.5771 9.74031 17.6778 9.56104 17.8571C9.38176 18.0364 9.28105 18.2795 9.28105 18.5331V19.489H8.32509C8.07156 19.489 7.82841 19.5897 7.64913 19.769C7.46986 19.9483 7.36914 20.1914 7.36914 20.4449C7.36914 20.6985 7.46986 20.9417 7.64913 21.1209C7.82841 21.3002 8.07156 21.4009 8.32509 21.4009H9.28105V22.3569C9.28105 22.6104 9.38176 22.8536 9.56104 23.0328C9.74031 23.2121 9.98346 23.3128 10.237 23.3128C10.4905 23.3128 10.7337 23.2121 10.913 23.0328C11.0922 22.8536 11.193 22.6104 11.193 22.3569V21.4009H12.1489C12.4024 21.4009 12.6456 21.3002 12.8249 21.1209C13.0041 20.9417 13.1049 20.6985 13.1049 20.4449C13.1049 20.1914 13.0041 19.9483 12.8249 19.769C12.6456 19.5897 12.4024 19.489 12.1489 19.489H11.193V18.5331C11.193 18.2795 11.0922 18.0364 10.913 17.8571ZM17.5119 8.21588C17.3447 8.08722 17.1396 8.01752 16.9287 8.01758C16.7179 8.0177 16.513 8.08752 16.346 8.21619C16.179 8.34479 16.0592 8.52502 16.0052 8.72882L14.8772 12.9875L11.6709 14.8373C11.5256 14.9213 11.4049 15.0419 11.3211 15.1873C11.2372 15.3326 11.193 15.4974 11.193 15.6652C11.193 15.833 11.2372 15.9979 11.3211 16.1431C11.4049 16.2885 11.5256 16.4092 11.6709 16.493L14.8772 18.3419L16.0043 22.6016C16.0584 22.8054 16.1783 22.9855 16.3454 23.114C16.5125 23.2425 16.7174 23.3122 16.9282 23.3122C17.139 23.3122 17.3439 23.2425 17.511 23.114C17.6781 22.9855 17.798 22.8054 17.8521 22.6016L18.9801 18.3428L22.1864 16.493C22.3317 16.4092 22.4524 16.2885 22.5363 16.1431C22.6202 15.9979 22.6643 15.833 22.6643 15.6652C22.6643 15.4974 22.6202 15.3326 22.5363 15.1873C22.4524 15.0419 22.3317 14.9213 22.1864 14.8373L18.9801 12.9885L17.8531 8.72882C17.7991 8.52484 17.6791 8.34454 17.5119 8.21588Z" fill="#A667F6"/>
</svg>
