<svg width="31" height="31" viewBox="0 0 31 31" fill="none" xmlns="http://www.w3.org/2000/svg">
<path fill-rule="evenodd" clip-rule="evenodd" d="M16.8105 30.0841C24.3905 29.3315 30.3105 22.9363 30.3105 15.1582C30.3105 6.8739 23.5948 0.158203 15.3105 0.158203C7.02628 0.158203 0.310547 6.8739 0.310547 15.1582C0.310547 22.9363 6.23056 29.3315 13.8105 30.0841V21.7793C13.8105 18.9386 11.6569 16.6009 8.89335 16.3098V18.1606L4.71484 14.7795L8.89335 11.3984V13.299C10.7629 13.4255 12.4666 14.1566 13.8105 15.2983V9.20782H11.9297L15.3108 5.0293L18.6919 9.20782H16.8105V15.2983C18.1545 14.1566 19.8582 13.4255 21.7277 13.299V11.3984L25.9062 14.7795L21.7277 18.1606V16.3098C18.9642 16.6009 16.8105 18.9386 16.8105 21.7793V30.0841Z" fill="#631DF8"/>
</svg>
