<svg width="31" height="31" viewBox="0 0 31 31" fill="none" xmlns="http://www.w3.org/2000/svg">
<path fill-rule="evenodd" clip-rule="evenodd" d="M30.0176 15.8633C30.0176 24.1476 23.3018 30.8633 15.0176 30.8633C6.73331 30.8633 0.0175781 24.1476 0.0175781 15.8633C0.0175781 7.57898 6.73331 0.863281 15.0176 0.863281C23.3018 0.863281 30.0176 7.57898 30.0176 15.8633ZM16.9498 17.884L21.2157 17.884L21.264 17.884C22.4077 17.8583 23.327 16.9227 23.327 15.7728C23.327 14.6068 22.3817 13.6615 21.2157 13.6615C21.0447 13.6615 20.8783 13.6819 20.7191 13.7203C20.776 13.415 20.8058 13.1001 20.8058 12.7783C20.8058 9.95837 18.5198 7.67236 15.6999 7.67236C13.2717 7.67236 11.2394 9.36737 10.7216 11.6387C10.4505 11.5635 10.1649 11.5234 9.86989 11.5234C8.11338 11.5234 6.68945 12.9473 6.68945 14.7038C6.68945 16.4603 8.11338 17.8842 9.86989 17.8842L9.9099 17.884H13.0653L15.0076 17.8842L16.9498 17.884ZM11.6641 24.0537L15.3622 19.5953L19.0603 24.0537H11.6641Z" fill="#7830D3"/>
</svg>
