<svg width="31" height="31" viewBox="0 0 31 31" fill="none" xmlns="http://www.w3.org/2000/svg">
<path fill-rule="evenodd" clip-rule="evenodd" d="M7.81305 28.5085C14.9874 32.6506 24.1613 30.1925 28.3034 23.0181C32.4456 15.8437 29.9874 6.66988 22.8131 2.52775C15.6387 -1.61439 6.46481 0.84374 2.32267 8.01813C-1.81947 15.1925 0.638662 24.3664 7.81305 28.5085ZM10.9333 10.765C9.22987 13.7154 10.2408 17.4881 13.1911 19.1915L19.3597 8.50718C16.4093 6.80377 12.6367 7.81465 10.9333 10.765ZM19.6917 20.2702C21.3951 17.3198 20.3842 13.5471 17.4339 11.8437L11.2653 22.528C14.2157 24.2315 17.9883 23.2206 19.6917 20.2702Z" fill="#22CAAC"/>
</svg>
