<svg width="31" height="31" viewBox="0 0 31 31" fill="none" xmlns="http://www.w3.org/2000/svg">
<circle cx="15.3164" cy="15.709" r="15" fill="#22CAAC" fill-opacity="0.2"/>
<path fill-rule="evenodd" clip-rule="evenodd" d="M10.9799 19.2216C8.86645 17.0048 8.36666 13.5791 9.97566 10.7922C11.9319 7.40398 16.2644 6.24308 19.6527 8.19929L21.3847 9.19929L19.6541 12.1969C21.7676 14.4137 22.2674 17.8394 20.6583 20.6263C18.7021 24.0145 14.3696 25.1754 10.9813 23.2192L9.24928 22.2192L10.9799 19.2216ZM13.5686 18.7372C12.9538 18.3822 12.4412 17.9183 12.041 17.3838C10.8588 15.8043 10.6588 13.609 11.7077 11.7922C12.7566 9.97551 14.7574 9.05103 16.7164 9.28511C17.3795 9.36434 18.0377 9.57631 18.6527 9.93134L13.5686 18.7372ZM17.0664 12.6818L17.0651 12.6811L11.9813 21.4872C12.5963 21.8422 13.2545 22.0542 13.9176 22.1334C15.8766 22.3675 17.8774 21.443 18.9263 19.6263C19.9752 17.8095 19.7754 15.6145 18.5932 14.035C18.1933 13.5008 17.6808 13.0367 17.0664 12.6818Z" fill="#22CAAC"/>
</svg>
