<svg width="31" height="31" viewBox="0 0 31 31" fill="none" xmlns="http://www.w3.org/2000/svg">
<path fill-rule="evenodd" clip-rule="evenodd" d="M15.0176 30.3096C23.3018 30.3096 30.0176 23.5938 30.0176 15.3096C30.0176 7.0253 23.3018 0.30957 15.0176 0.30957C6.73331 0.30957 0.0175781 7.0253 0.0175781 15.3096C0.0175781 23.5938 6.73331 30.3096 15.0176 30.3096ZM20.1915 11.1404L15.0177 5.96662L9.84299 11.1413C6.98551 13.9988 6.98549 18.6317 9.84301 21.4892C12.7005 24.3467 17.3334 24.3467 20.1909 21.4892C23.0483 18.6317 23.0484 13.9988 20.1909 11.1414L20.1915 11.1404ZM15.0899 11.6972L15.0905 11.6962L15.0177 11.6235L12.6714 13.9698C11.376 15.2652 11.376 17.3654 12.6714 18.6608C13.9668 19.9562 16.067 19.9562 17.3624 18.6608C18.6578 17.3654 18.6578 15.2651 17.3625 13.9698L15.0899 11.6972Z" fill="#F49F3B"/>
</svg>
