<svg width="31" height="31" viewBox="0 0 31 31" fill="none" xmlns="http://www.w3.org/2000/svg">
<path fill-rule="evenodd" clip-rule="evenodd" d="M15.6992 30.1406C23.9835 30.1406 30.6992 23.4249 30.6992 15.1406C30.6992 6.85632 23.9835 0.140625 15.6992 0.140625C7.41495 0.140625 0.699219 6.85632 0.699219 15.1406C0.699219 23.4249 7.41495 30.1406 15.6992 30.1406ZM10.5077 8.79199C9.16157 8.79199 8.07031 9.8833 8.07031 11.2294V19.0514C8.07031 20.3976 9.16157 21.4888 10.5077 21.4888H18.3297C19.6759 21.4888 20.7671 20.3976 20.7671 19.0514V11.2294C20.7671 9.8833 19.6759 8.79199 18.3297 8.79199H10.5077ZM14.4191 9.70813C11.4186 9.70813 8.98628 12.1404 8.98628 15.1409C8.98628 18.1414 11.4186 20.5736 14.4191 20.5736C17.4195 20.5736 19.8518 18.1414 19.8518 15.1409C19.8518 12.1404 17.4195 9.70813 14.4191 9.70813ZM25.8914 15.1405L22.6074 12.582V17.6989L25.8914 15.1405Z" fill="#D3293D"/>
</svg>
