<svg width="31" height="31" viewBox="0 0 31 31" fill="none" xmlns="http://www.w3.org/2000/svg">
<path fill-rule="evenodd" clip-rule="evenodd" d="M15.0176 28.29C22.1973 28.29 28.0176 22.4697 28.0176 15.29C28.0176 8.11035 22.1973 2.29004 15.0176 2.29004C7.83788 2.29004 2.01758 8.11035 2.01758 15.29C2.01758 22.4697 7.83788 28.29 15.0176 28.29ZM15.0176 30.29C23.3018 30.29 30.0176 23.5743 30.0176 15.29C30.0176 7.00574 23.3018 0.290039 15.0176 0.290039C6.73331 0.290039 0.0175781 7.00574 0.0175781 15.29C0.0175781 23.5743 6.73331 30.29 15.0176 30.29ZM22.5663 15.2901L16.6172 10.3555V20.2247L22.5663 15.2901ZM13.418 10.3555L7.46881 15.2901L13.418 20.2247V10.3555Z" fill="#A667F6"/>
</svg>
