<svg width="31" height="31" viewBox="0 0 31 31" fill="none" xmlns="http://www.w3.org/2000/svg">
<path d="M30.0176 15.6455C30.0176 23.9298 23.3018 30.6455 15.0176 30.6455C6.73331 30.6455 0.0175781 23.9298 0.0175781 15.6455C0.0175781 7.36124 6.73331 0.645508 15.0176 0.645508C23.3018 0.645508 30.0176 7.36124 30.0176 15.6455Z" fill="#FF6666" fill-opacity="0.2"/>
<path fill-rule="evenodd" clip-rule="evenodd" d="M21.2157 18.3923L16.9498 18.3923L15.0076 18.3925L13.0653 18.3923H9.9099L9.86989 18.3925C8.11338 18.3925 6.68945 16.9686 6.68945 15.2121C6.68945 13.4556 8.11338 12.0317 9.86989 12.0317C10.1649 12.0317 10.4505 12.0718 10.7216 12.147C11.2394 9.87567 13.2717 8.18066 15.6999 8.18066C18.5198 8.18066 20.8058 10.4667 20.8058 13.2866C20.8058 13.6084 20.776 13.9233 20.7191 14.2286C20.8783 14.1902 21.0447 14.1698 21.2157 14.1698C22.3817 14.1698 23.327 15.1151 23.327 16.2811C23.327 17.431 22.4077 18.3666 21.264 18.3923L21.2157 18.3923ZM19.0684 20.001L15.3702 24.4594L11.6721 20.001H19.0684Z" fill="#FF6666"/>
</svg>
