<svg width="31" height="31" viewBox="0 0 31 31" fill="none" xmlns="http://www.w3.org/2000/svg">
<path fill-rule="evenodd" clip-rule="evenodd" d="M15.0176 30.4888C23.3018 30.4888 30.0176 23.7731 30.0176 15.4888C30.0176 7.20447 23.3018 0.48877 15.0176 0.48877C6.73331 0.48877 0.0175781 7.20447 0.0175781 15.4888C0.0175781 23.7731 6.73331 30.4888 15.0176 30.4888ZM21.2235 20.0027L16.9576 20.0026L15.0154 20.0029L13.0732 20.0026H9.91771L9.8777 20.0029C8.1212 20.0029 6.69727 18.5789 6.69727 16.8224C6.69727 15.0659 8.1212 13.642 9.8777 13.642C10.1727 13.642 10.4583 13.6822 10.7294 13.7573C11.2472 11.486 13.2795 9.79102 15.7077 9.79102C18.5276 9.79102 20.8136 12.077 20.8136 14.8969C20.8136 15.2188 20.7838 15.5336 20.7269 15.8389C20.8862 15.8005 21.0525 15.7802 21.2235 15.7802C22.3896 15.7802 23.3348 16.7254 23.3348 17.8914C23.3348 19.0413 22.4155 19.977 21.2718 20.0026L21.2235 20.0027Z" fill="#A667F6"/>
</svg>
