<svg width="400px" height="242px" viewBox="0 0 400 242" version="1.1" xmlns="http://www.w3.org/2000/svg" xmlns:xlink="http://www.w3.org/1999/xlink">
  <defs>
    <linearGradient x1="3.46944695e-16%" y1="38.5165959%" x2="102.932602%" y2="61.5943653%" id="linearGradient-gmmc4k11sm-1">
      <stop stop-color="#FE3D71" offset="0%"></stop>
      <stop stop-color="#8922A2" offset="56.5429037%"></stop>
      <stop stop-color="#28B5D4" offset="97.2058032%"></stop>
      <stop stop-color="#24BBD6" offset="97.6589624%"></stop>
      <stop stop-color="#000000" offset="100%"></stop>
      <stop stop-color="#000000" offset="100%"></stop>
      <stop stop-color="#2AD7EF" offset="100%"></stop>
      <stop stop-color="#0099FF" offset="100%"></stop>
    </linearGradient>
  </defs>
  <g id="Page-1" stroke="none" stroke-width="1" fill="none" fill-rule="evenodd">
    <g id="image2vector-(2)" fill="url(#linearGradient-gmmc4k11sm-1)">
      <path d="M279.933436,0.980616974 C211.104436,8.93661697 170.949436,74.422617 186.701436,153.023617 C198.197436,210.389617 241.426436,242.961617 302.754436,240.468617 C365.535436,237.916617 398.898436,201.591617 399.162436,135.500617 L399.266436,109.500617 L348.962436,109.151617 L298.659436,108.801617 L297.878436,111.913617 C296.765436,116.346617 297.787436,149.797617 299.074436,151.089617 C299.665436,151.682617 310.059436,152.358617 322.172436,152.591617 L344.195436,153.016617 L343.348436,157.534617 C335.617436,198.746617 269.790436,202.429617 251.757436,162.660617 C241.039436,139.020617 241.065436,102.989617 251.817436,79.986617 C268.355436,44.604617 320.477436,41.420617 336.172436,74.833617 L339.304436,81.500617 L365.285436,81.878617 C401.361436,82.404617 400.364436,83.009617 393.789436,64.579617 C377.480436,18.862617 334.232436,-5.29538303 279.933436,0.980616974 M15.3964361,6.50061697 C14.9304361,8.15061697 13.9884361,17.300617 13.3044361,26.833617 C11.2744361,55.119617 6.71843614,112.871617 5.82243614,121.669617 C4.80243614,131.695617 3.51143614,130.882617 26.9314361,134.981617 C37.3824361,136.811617 48.1984361,138.815617 50.9654361,139.436617 C55.6754361,140.492617 56.3594361,140.221617 61.6324361,135.208617 C92.8094361,105.571617 139.884436,139.526617 120.266436,177.500617 C107.668436,201.885617 58.6004361,199.809617 58.6004361,174.891617 C58.6004361,168.067617 57.1984361,167.705617 29.0014361,167.254617 C-2.41956386,166.751617 -1.28156386,166.245617 1.02543614,179.697617 C13.5744361,252.880617 139.395436,264.193617 172.521436,195.118617 C191.698436,155.128617 176.600436,105.841617 139.682436,87.919617 C114.830436,75.854617 82.3754361,79.072617 65.3264361,95.290617 C60.4794361,99.902617 59.5274361,100.384617 59.6564361,98.167617 C59.8904361,94.176617 64.1854361,56.758617 64.6674361,54.516617 L65.3094361,51.532617 L116.288436,51.182617 L167.266436,50.833617 L167.662436,31.500617 C167.879436,20.867617 167.702436,10.217617 167.268436,7.83361697 L166.479436,3.50061697 L91.3614361,3.50061697 L16.2444361,3.50061697 L15.3964361,6.50061697" id="path0"></path>
    </g>
  </g>
</svg>