<svg width="12" height="12" viewBox="0 0 12 12" fill="none" xmlns="http://www.w3.org/2000/svg">
<path d="M8.35413 5.83401C8.35413 5.26032 8.12623 4.71013 7.72057 4.30447C7.31492 3.89881 6.76472 3.67091 6.19103 3.67091C5.61735 3.67091 5.06715 3.89881 4.66149 4.30447C4.25584 4.71013 4.02794 5.26032 4.02794 5.83401C4.02794 6.4077 4.25584 6.95789 4.66149 7.36355C5.06715 7.76921 5.61735 7.9971 6.19103 7.9971C6.76472 7.9971 7.31492 7.76921 7.72057 7.36355C8.12623 6.95789 8.35413 6.4077 8.35413 5.83401ZM8.35413 5.83401V6.64517C8.35413 7.00373 8.49657 7.3476 8.7501 7.60113C9.00364 7.85467 9.34751 7.9971 9.70607 7.9971C10.0646 7.9971 10.4085 7.85467 10.662 7.60113C10.9156 7.3476 11.058 7.00373 11.058 6.64517V5.83401C11.058 4.87141 10.7726 3.93044 10.2378 3.13007C9.70298 2.3297 8.94286 1.70589 8.05354 1.33752C7.16422 0.96915 6.18564 0.872768 5.24154 1.06056C4.29744 1.24835 3.43023 1.71189 2.74957 2.39254C2.06891 3.0732 1.60538 3.94041 1.41759 4.88451C1.22979 5.82861 1.32617 6.80719 1.69454 7.69652C2.06291 8.58584 2.68672 9.34595 3.48709 9.88074C4.28746 10.4155 5.22844 10.701 6.19103 10.701C7.04556 10.7018 7.88511 10.4772 8.62452 10.0488" stroke="#474DFF" strokeWidth="1.3" strokeLinecap="round" strokeLinejoin="round"/>
</svg>
