<svg width="11" height="11" viewBox="0 0 11 11" fill="none" xmlns="http://www.w3.org/2000/svg">
<path d="M5.44525 1.1593V1.6784M8.55984 7.38846H9.59803M6.48345 7.38846H5.44525V9.46485M5.44525 3.75479V5.31208M5.44525 5.31208H5.45045M5.44525 5.31208H7.52683M7.52164 9.46485H9.59803M1.29248 5.31208H3.36887M9.59803 5.31208H9.60322M1.81158 3.23569H2.84977C2.98744 3.23569 3.11948 3.181 3.21683 3.08365C3.31418 2.9863 3.36887 2.85427 3.36887 2.71659V1.6784C3.36887 1.54073 3.31418 1.40869 3.21683 1.31134C3.11948 1.21399 2.98744 1.1593 2.84977 1.1593H1.81158C1.6739 1.1593 1.54187 1.21399 1.44452 1.31134C1.34717 1.40869 1.29248 1.54073 1.29248 1.6784V2.71659C1.29248 2.85427 1.34717 2.9863 1.44452 3.08365C1.54187 3.181 1.6739 3.23569 1.81158 3.23569ZM8.04074 3.23569H9.07893C9.21661 3.23569 9.34864 3.181 9.44599 3.08365C9.54334 2.9863 9.59803 2.85427 9.59803 2.71659V1.6784C9.59803 1.54073 9.54334 1.40869 9.44599 1.31134C9.34864 1.21399 9.21661 1.1593 9.07893 1.1593H8.04074C7.90307 1.1593 7.77103 1.21399 7.67368 1.31134C7.57633 1.40869 7.52164 1.54073 7.52164 1.6784V2.71659C7.52164 2.85427 7.57633 2.9863 7.67368 3.08365C7.77103 3.181 7.90307 3.23569 8.04074 3.23569ZM1.81158 9.46485H2.84977C2.98744 9.46485 3.11948 9.41016 3.21683 9.31281C3.31418 9.21546 3.36887 9.08343 3.36887 8.94575V7.90756C3.36887 7.76989 3.31418 7.63785 3.21683 7.5405C3.11948 7.44315 2.98744 7.38846 2.84977 7.38846H1.81158C1.6739 7.38846 1.54187 7.44315 1.44452 7.5405C1.34717 7.63785 1.29248 7.76989 1.29248 7.90756V8.94575C1.29248 9.08343 1.34717 9.21546 1.44452 9.31281C1.54187 9.41016 1.6739 9.46485 1.81158 9.46485Z" stroke="#474DFF" strokeWidth="1.1" strokeLinecap="round" strokeLinejoin="round"/>
</svg>
