<?xml version="1.0" encoding="UTF-8"?>
<svg width="36px" height="63px" viewBox="0 0 36 63" version="1.1" xmlns="http://www.w3.org/2000/svg" xmlns:xlink="http://www.w3.org/1999/xlink">
    <!-- Generator: Sketch 57.1 (83088) - https://sketch.com -->
    <title>Path</title>
    <desc>Created with Sketch.</desc>
    <g id="Page-1" stroke="none" strokeWidth="1" fill="none" fill-rule="evenodd">
        <g id="Artboard" transform="translate(-36.000000, -23.000000)" fill="#A0B0C2" fill-rule="nonzero">
            <path d="M70.0231466,24.1731466 C69.2728736,23.4220385 68.2547836,23 67.1931466,23 C66.1315096,23 65.1134197,23.4220385 64.3631466,24.1731466 L37.1731466,51.3431466 C36.4220385,52.0934197 36,53.1115096 36,54.1731466 C36,55.2347836 36.4220385,56.2528736 37.1731466,57.0031466 L64.3631466,84.1731466 C65.3652027,85.2259801 66.8595074,85.6523995 68.2662866,85.2869589 C69.6730658,84.9215183 70.7709069,83.8217342 71.1338593,82.4143109 C71.4968117,81.0068876 71.0677504,79.5133394 70.0131466,78.5131466 L45.6531466,54.1731466 L70.0131466,29.8331466 C70.7655819,29.0842015 71.1894202,28.0668568 71.1912958,27.0052193 C71.1931715,25.9435818 70.7729308,24.9247459 70.0231466,24.1731466 Z" id="Path"></path>
        </g>
    </g>
</svg>