<svg width="36" height="36" viewBox="0 0 36 36" fill="none" xmlns="http://www.w3.org/2000/svg">
<rect x="0.206055" y="0.486084" width="35.4296" height="35.4296" rx="10" fill="#474DFF"/>
<path fill-rule="evenodd" clip-rule="evenodd" d="M11.1167 9.44422C11.3744 9.702 11.5191 10.0516 11.5191 10.4161C11.5191 10.7806 11.3744 11.1302 11.1167 11.3879C10.223 12.2815 9.51417 13.3423 9.03054 14.5098C8.5469 15.6773 8.29798 16.9286 8.29798 18.1923C8.29798 19.4561 8.5469 20.7074 9.03054 21.8749C9.51417 23.0424 10.223 24.1032 11.1167 24.9967C11.248 25.1235 11.3527 25.2752 11.4247 25.4429C11.4968 25.6106 11.5347 25.791 11.5363 25.9735C11.5378 26.1561 11.5031 26.3371 11.434 26.506C11.3648 26.6749 11.2628 26.8284 11.1337 26.9575C11.0046 27.0866 10.8512 27.1886 10.6822 27.2578C10.5133 27.3269 10.3323 27.3616 10.1497 27.3601C9.96722 27.3585 9.78684 27.3206 9.61913 27.2485C9.45143 27.1765 9.29974 27.0717 9.17294 26.9405C8.02411 25.7916 7.11281 24.4278 6.49107 22.9268C5.86932 21.4258 5.54932 19.817 5.54932 18.1923C5.54932 16.5677 5.86932 14.9589 6.49107 13.4579C7.11281 11.9569 8.02411 10.593 9.17294 9.44422C9.43072 9.18652 9.7803 9.04175 10.1448 9.04175C10.5093 9.04175 10.8589 9.18652 11.1167 9.44422ZM24.7255 9.44422C24.9832 9.18652 25.3328 9.04175 25.6973 9.04175C26.0618 9.04175 26.4114 9.18652 26.6692 9.44422C27.818 10.593 28.7293 11.9569 29.351 13.4579C29.9728 14.9589 30.2928 16.5677 30.2928 18.1923C30.2928 19.817 29.9728 21.4258 29.351 22.9268C28.7293 24.4278 27.818 25.7916 26.6692 26.9405C26.5424 27.0717 26.3907 27.1765 26.223 27.2485C26.0553 27.3206 25.8749 27.3585 25.6924 27.3601C25.5098 27.3616 25.3288 27.3269 25.1599 27.2578C24.991 27.1886 24.8375 27.0866 24.7084 26.9575C24.5793 26.8284 24.4773 26.6749 24.4082 26.506C24.339 26.3371 24.3043 26.1561 24.3059 25.9735C24.3074 25.791 24.3454 25.6106 24.4174 25.4429C24.4894 25.2752 24.5942 25.1235 24.7255 24.9967C25.6191 24.1032 26.3279 23.0424 26.8116 21.8749C27.2952 20.7074 27.5441 19.4561 27.5441 18.1923C27.5441 16.9286 27.2952 15.6773 26.8116 14.5098C26.3279 13.3423 25.6191 12.2815 24.7255 11.3879C24.4678 11.1302 24.323 10.7806 24.323 10.4161C24.323 10.0516 24.4678 9.702 24.7255 9.44422ZM15.0055 13.3317C15.2632 13.5894 15.4079 13.939 15.4079 14.3035C15.4079 14.668 15.2632 15.0176 15.0055 15.2754C14.6225 15.6583 14.3186 16.113 14.1114 16.6134C13.9041 17.1137 13.7974 17.65 13.7974 18.1917C13.7974 18.7333 13.9041 19.2696 14.1114 19.77C14.3186 20.2703 14.6225 20.725 15.0055 21.1079C15.1331 21.2356 15.2343 21.3872 15.3034 21.5541C15.3724 21.7209 15.4079 21.8997 15.4078 22.0803C15.4078 22.2608 15.3721 22.4396 15.303 22.6064C15.2338 22.7732 15.1325 22.9247 15.0048 23.0523C14.8771 23.18 14.7255 23.2812 14.5586 23.3502C14.3918 23.4193 14.213 23.4548 14.0324 23.4547C13.8519 23.4546 13.6731 23.419 13.5063 23.3498C13.3395 23.2807 13.188 23.1794 13.0604 23.0516C11.7719 21.7627 11.048 20.0148 11.048 18.1923C11.048 16.3698 11.7719 14.6219 13.0604 13.333C13.188 13.2052 13.3397 13.1038 13.5065 13.0347C13.6734 12.9655 13.8523 12.9299 14.0329 12.9299C14.2136 12.9299 14.3925 12.9655 14.5593 13.0347C14.7262 13.1038 14.8778 13.2052 15.0055 13.333V13.3317ZM20.8366 13.3317C20.9643 13.2039 21.1159 13.1025 21.2828 13.0333C21.4497 12.9641 21.6285 12.9285 21.8092 12.9285C21.9898 12.9285 22.1687 12.9641 22.3356 13.0333C22.5025 13.1025 22.6541 13.2039 22.7817 13.3317C23.4202 13.9699 23.9266 14.7277 24.2721 15.5617C24.6176 16.3957 24.7955 17.2896 24.7955 18.1923C24.7955 19.0951 24.6176 19.989 24.2721 20.823C23.9266 21.657 23.4202 22.4148 22.7817 23.053C22.5238 23.311 22.174 23.4559 21.8092 23.4559C21.4444 23.4559 21.0946 23.311 20.8366 23.053C20.5787 22.7951 20.4338 22.4452 20.4338 22.0805C20.4338 21.7157 20.5787 21.3659 20.8366 21.1079C21.6097 20.3346 22.0441 19.2858 22.0441 18.1923C22.0441 17.0988 21.6097 16.0501 20.8366 15.2768C20.7088 15.1491 20.6074 14.9975 20.5383 14.8306C20.4691 14.6637 20.4335 14.4849 20.4335 14.3042C20.4335 14.1236 20.4691 13.9447 20.5383 13.7778C20.6074 13.6109 20.7088 13.4593 20.8366 13.3317ZM17.9211 16.8177C18.2856 16.8177 18.6353 16.9625 18.8931 17.2203C19.1509 17.4781 19.2957 17.8278 19.2957 18.1923V18.2061C19.2957 18.5707 19.1509 18.9203 18.8931 19.1781C18.6353 19.4359 18.2856 19.5807 17.9211 19.5807C17.5565 19.5807 17.2068 19.4359 16.949 19.1781C16.6913 18.9203 16.5464 18.5707 16.5464 18.2061V18.1923C16.5464 17.8278 16.6913 17.4781 16.949 17.2203C17.2068 16.9625 17.5565 16.8177 17.9211 16.8177Z" fill="white"/>
</svg>
