<svg width="11" height="11" viewBox="0 0 11 11" fill="none" xmlns="http://www.w3.org/2000/svg">
<path fill-rule="evenodd" clip-rule="evenodd" d="M5.67821 10.0341C6.95779 10.0341 8.18497 9.52583 9.08978 8.62103C9.99458 7.71622 10.5029 6.48904 10.5029 5.20946C10.5029 3.92987 9.99458 2.70269 9.08978 1.79788C8.18497 0.89308 6.95779 0.384766 5.67821 0.384766C4.39862 0.384766 3.17144 0.89308 2.26663 1.79788C1.36183 2.70269 0.853516 3.92987 0.853516 5.20946C0.853516 6.48904 1.36183 7.71622 2.26663 8.62103C3.17144 9.52583 4.39862 10.0341 5.67821 10.0341ZM6.28129 2.79711C6.28129 2.63716 6.21775 2.48376 6.10465 2.37066C5.99155 2.25756 5.83815 2.19402 5.67821 2.19402C5.51826 2.19402 5.36486 2.25756 5.25176 2.37066C5.13866 2.48376 5.07512 2.63716 5.07512 2.79711V5.20946C5.07515 5.36939 5.13871 5.52276 5.25182 5.63584L6.95735 7.34197C7.01338 7.398 7.0799 7.44245 7.15311 7.47277C7.22633 7.5031 7.30479 7.51871 7.38403 7.51871C7.46328 7.51871 7.54174 7.5031 7.61495 7.47277C7.68816 7.44245 7.75468 7.398 7.81072 7.34197C7.86675 7.28593 7.9112 7.21941 7.94152 7.1462C7.97185 7.07299 7.98746 6.99453 7.98746 6.91528C7.98746 6.83604 7.97185 6.75758 7.94152 6.68436C7.9112 6.61115 7.86675 6.54463 7.81072 6.4886L6.28129 4.95978V2.79711Z" fill="#FCC945"/>
</svg>
