<svg width="12" height="12" viewBox="0 0 12 12" fill="none" xmlns="http://www.w3.org/2000/svg">
<path d="M5.86914 3.76923V5.99146L8.09813 7.90487M10.8691 5.99146C10.8691 6.64806 10.7398 7.29824 10.4885 7.90487C10.2373 8.5115 9.86897 9.0627 9.40467 9.52699C8.94038 9.99128 8.38919 10.3596 7.78256 10.6109C7.17593 10.8621 6.52575 10.9915 5.86914 10.9915C5.21253 10.9915 4.56235 10.8621 3.95572 10.6109C3.3491 10.3596 2.7979 9.99128 2.33361 9.52699C1.86931 9.0627 1.50102 8.5115 1.24974 7.90487C0.998469 7.29824 0.869141 6.64806 0.869141 5.99146C0.869141 4.66537 1.39592 3.3936 2.33361 2.45592C3.27129 1.51824 4.54306 0.991455 5.86914 0.991455C7.19522 0.991455 8.46699 1.51824 9.40467 2.45592C10.3424 3.3936 10.8691 4.66537 10.8691 5.99146Z" stroke="#9D9DC0" strokeLinecap="round" strokeLinejoin="round"/>
</svg>
