<svg width="167" height="167" viewBox="0 0 167 167" fill="none" xmlns="http://www.w3.org/2000/svg">
<rect x="0.288574" y="0.147827" width="166.704" height="166.704" rx="32" fill="#2F3D58"/>
<path fill-rule="evenodd" clip-rule="evenodd" d="M68.0191 65.801C58.2442 75.5758 58.2442 91.4242 68.0191 101.199C77.794 110.974 93.6422 110.974 103.417 101.199C109.341 95.2747 118.946 95.2747 124.872 101.199C130.796 107.123 130.796 116.729 124.872 122.653C103.247 144.277 68.1886 144.277 46.5649 122.653C24.9412 101.029 24.9412 65.9705 46.5649 44.3468C68.1886 22.7231 103.247 22.7231 124.872 44.3468C130.796 50.2712 130.796 59.8766 124.872 65.801C118.946 71.7254 109.341 71.7254 103.417 65.801C93.6422 56.0261 77.794 56.0261 68.0191 65.801Z" fill="#A667F6"/>
</svg>
