<svg width="197" height="210" viewBox="0 0 197 210" fill="none" xmlns="http://www.w3.org/2000/svg">
<g filter="url(#filter0_di)">
<path fill-rule="evenodd" clip-rule="evenodd" d="M85.6777 77.1035C75.2416 87.5396 75.2416 104.46 85.6777 114.896C96.1138 125.332 113.034 125.332 123.47 114.896C129.795 108.571 140.05 108.571 146.376 114.896C152.701 121.221 152.701 131.476 146.376 137.801C123.289 160.888 85.8587 160.888 62.7723 137.801C39.6859 114.715 39.6859 77.2845 62.7723 54.1981C85.8587 31.1117 123.289 31.1117 146.376 54.1981C152.701 60.5233 152.701 70.7784 146.376 77.1035C140.05 83.4287 129.795 83.4287 123.47 77.1035C113.034 66.6674 96.1138 66.6674 85.6777 77.1035Z" fill="#FF6666"/>
</g>
<defs>
<filter id="filter0_di" x="0.45752" y="0.883301" width="195.662" height="208.233" filterUnits="userSpaceOnUse" color-interpolation-filters="sRGB">
<feFlood flood-opacity="0" result="BackgroundImageFix"/>
<feColorMatrix in="SourceAlpha" type="matrix" values="0 0 0 0 0 0 0 0 0 0 0 0 0 0 0 0 0 0 127 0"/>
<feOffset dy="9"/>
<feGaussianBlur stdDeviation="22.5"/>
<feColorMatrix type="matrix" values="0 0 0 0 0.0862745 0 0 0 0 0.117647 0 0 0 0 0.180392 0 0 0 1 0"/>
<feBlend mode="normal" in2="BackgroundImageFix" result="effect1_dropShadow"/>
<feBlend mode="normal" in="SourceGraphic" in2="effect1_dropShadow" result="shape"/>
<feColorMatrix in="SourceAlpha" type="matrix" values="0 0 0 0 0 0 0 0 0 0 0 0 0 0 0 0 0 0 127 0" result="hardAlpha"/>
<feOffset dy="2"/>
<feComposite in2="hardAlpha" operator="arithmetic" k2="-1" k3="1"/>
<feColorMatrix type="matrix" values="0 0 0 0 1 0 0 0 0 1 0 0 0 0 1 0 0 0 0.25 0"/>
<feBlend mode="normal" in2="shape" result="effect2_innerShadow"/>
</filter>
</defs>
</svg>
