<svg width="29" height="29" viewBox="0 0 29 29" fill="none" xmlns="http://www.w3.org/2000/svg">
<path d="M28.5117 14.747C28.5117 22.479 22.2437 28.747 14.5117 28.747C6.77973 28.747 0.511719 22.479 0.511719 14.747C0.511719 7.01503 6.77973 0.747017 14.5117 0.747017C22.2437 0.747017 28.5117 7.01503 28.5117 14.747Z" fill="#2E313B"/>
<path fill-rule="evenodd" clip-rule="evenodd" d="M10.6075 14.747C10.6075 13.3579 9.48566 12.216 8.0501 12.0838C7.89662 12.0697 7.77124 11.9531 7.77124 11.8076V9.18596C7.77124 9.04047 7.89653 8.92191 8.05058 8.92838C11.3304 9.06619 13.9447 11.6186 13.9447 14.747C13.9447 17.8755 11.3304 20.4278 8.05058 20.5656C7.89653 20.5721 7.77124 20.4536 7.77124 20.3081V17.6865C7.77124 17.541 7.89662 17.4244 8.0501 17.4102C9.48566 17.2781 10.6075 16.1362 10.6075 14.747Z" fill="#009FF9"/>
<path fill-rule="evenodd" clip-rule="evenodd" d="M18.416 14.747C18.416 16.1361 19.5378 17.2781 20.9734 17.4102C21.1269 17.4244 21.2523 17.541 21.2523 17.6864V20.3081C21.2523 20.4536 21.127 20.5721 20.9729 20.5656C17.6931 20.4278 15.0789 17.8755 15.0789 14.747C15.0789 11.6186 17.6931 9.06618 20.9729 8.92838C21.127 8.92191 21.2523 9.04047 21.2523 9.18596V11.8076C21.2523 11.9531 21.1269 12.0697 20.9734 12.0838C19.5378 12.2159 18.416 13.3579 18.416 14.747Z" fill="#27EE76"/>
</svg>
