<svg width="12" height="12" viewBox="0 0 12 12" fill="none" xmlns="http://www.w3.org/2000/svg">
<path fill-rule="evenodd" clip-rule="evenodd" d="M2.69785 5.58029C2.69785 4.19494 1.5748 3.0719 0.189453 3.0719V0.120605C3.20475 0.120605 5.64914 2.56499 5.64914 5.58029C5.64914 8.59559 3.20475 11.04 0.189453 11.04V8.08869C1.5748 8.08869 2.69785 6.96564 2.69785 5.58029Z" fill="#474DFF"/>
<path fill-rule="evenodd" clip-rule="evenodd" d="M8.98477 5.57938C8.98477 6.96473 10.1078 8.08777 11.4932 8.08777L11.4932 11.0391C8.47786 11.0391 6.03348 8.59468 6.03348 5.57938C6.03348 2.56408 8.47786 0.119693 11.4932 0.119694L11.4932 3.07098C10.1078 3.07098 8.98477 4.19403 8.98477 5.57938Z" fill="#20DEB0"/>
</svg>
