<svg width="40" height="96" viewBox="0 0 40 96" fill="none" xmlns="http://www.w3.org/2000/svg">
<path d="M11.6 65.4C10.2 64 7.90001 64 6.50001 65.4C5.10001 66.8 5.10001 69.1 6.50001 70.5L17.4 81.4C18.8 82.8 21.1 82.8 22.5 81.4L33.4 70.5C34.1 69.8 34.4 68.9 34.4 68C34.4 67.1 34 66.2 33.4 65.5C32 64.1 29.7 64.1 28.3 65.5L23.5 70.3V25.8L28.3 30.6C29.7 32 32 32 33.4 30.6C34.8 29.2 34.8 26.9 33.4 25.5L22.5 14.6C21.1 13.2 18.8 13.2 17.4 14.6L6.60001 25.5C5.90001 26.2 5.60001 27.1 5.60001 28C5.60001 28.9 5.90001 29.8 6.60001 30.5C8.00001 31.9 10.3 31.9 11.7 30.5L16.5 25.7V70.1L11.6 65.4Z" fill="#667394"/>
<path d="M37.7 0.5H2.3C1.5 0.5 0.800003 1.2 0.800003 2V6.1C0.800003 6.9 1.5 7.6 2.3 7.6H37.6C38.4 7.6 39.1 6.9 39.1 6.1V2C39.2 1.2 38.5 0.5 37.7 0.5Z" fill="#667394"/>
<path d="M37.7 88.3H2.3C1.5 88.3 0.800003 89 0.800003 89.8V94C0.800003 94.8 1.5 95.5 2.3 95.5H37.6C38.4 95.5 39.1 94.8 39.1 94V89.9C39.2 89 38.5 88.3 37.7 88.3Z" fill="#667394"/>
</svg>
