<?xml version="1.0" encoding="UTF-8"?>
<svg width="572px" height="160px" viewBox="0 0 572 160" version="1.1" xmlns="http://www.w3.org/2000/svg" xmlns:xlink="http://www.w3.org/1999/xlink">
    <!-- Generator: Sketch 54.1 (76490) - https://sketchapp.com -->
    <title>Combined Shape</title>
    <desc>Created with Sketch.</desc>
    <g id="Page-1" stroke="none" strokeWidth="1" fill="none" fill-rule="evenodd">
        <g id="Artboard-Copy-42" transform="translate(-1141.000000, -1392.000000)" fill="#FFFFFF">
            <path d="M1220.99983,1392 C1265.18271,1392 1301,1427.81729 1301,1472.00017 C1301,1516.18271 1265.18271,1552 1220.99983,1552 C1176.81729,1552 1141,1516.18271 1141,1472.00017 C1141,1427.81729 1176.81729,1392 1220.99983,1392 Z M1263.62485,1454.97664 C1270.69469,1447.90714 1270.69469,1436.44465 1263.62485,1429.37481 C1256.55535,1422.30531 1245.09286,1422.30531 1238.02302,1429.37481 C1235.39993,1431.99891 1233.75236,1435.22753 1233.07592,1438.61208 C1220.25652,1433.78695 1205.55298,1436.85226 1195.76428,1446.64197 C1185.96685,1456.4394 1182.90456,1471.15974 1187.74783,1483.9872 C1184.34144,1484.65625 1181.0893,1486.3092 1178.45008,1488.94809 C1171.38058,1496.01759 1171.38058,1507.48041 1178.45008,1514.54992 C1185.51992,1521.61942 1196.98207,1521.61942 1204.05191,1514.54992 C1206.70625,1511.89524 1208.36357,1508.62125 1209.02489,1505.1937 C1212.99615,1506.67527 1217.14518,1507.4075 1221.2737,1507.4075 C1230.44476,1507.4075 1239.50359,1503.84452 1246.23538,1497.11273 C1255.98913,1487.35965 1259.07057,1472.72668 1254.31971,1459.93954 C1257.72912,1459.2715 1260.98395,1457.61787 1263.62485,1454.97664 Z M1242.26513,1433.61691 C1246.92627,1428.95477 1254.51125,1428.95477 1259.17239,1433.61691 C1263.83387,1438.27839 1263.83387,1445.86304 1259.17239,1450.52451 C1256.4868,1453.21111 1252.78806,1454.44268 1249.01842,1453.9057 C1248.83831,1453.88016 1248.6629,1453.88654 1248.49017,1453.9067 C1247.37589,1453.76187 1246.20984,1453.91376 1245.11571,1454.42084 C1243.55752,1455.1423 1242.44524,1456.43234 1241.90691,1457.92971 C1241.378,1459.40054 1241.4032,1461.07164 1242.11156,1462.60161 C1246.12516,1471.27198 1244.28033,1481.63866 1237.52099,1488.398 C1230.76097,1495.15667 1220.39396,1497.00453 1211.72124,1492.98757 C1210.17044,1492.26946 1208.47447,1492.25198 1206.98885,1492.80342 C1205.51736,1493.34947 1204.25185,1494.45368 1203.54047,1495.99071 C1203.08615,1496.97126 1202.9141,1498.00961 1202.98634,1499.01637 C1202.9598,1499.21496 1202.95207,1499.41793 1202.98634,1499.6266 C1203.61843,1503.42985 1202.36972,1507.32651 1199.6475,1510.05074 C1194.98636,1514.71054 1187.40172,1514.71054 1182.73957,1510.05074 C1180.48142,1507.79158 1179.23775,1504.78945 1179.23775,1501.59644 C1179.23775,1498.40243 1180.48142,1495.39996 1182.73957,1493.14214 C1185.42449,1490.45621 1189.12524,1489.22666 1193.08306,1489.76868 C1193.4826,1489.84933 1193.88753,1489.90511 1194.29917,1489.90511 C1195.1658,1489.90511 1196.04655,1489.72097 1196.88395,1489.33352 C1198.40485,1488.62919 1199.49998,1487.3825 1200.05242,1485.9305 C1200.62133,1484.43447 1200.61327,1482.72035 1199.88776,1481.15275 C1195.87484,1472.48204 1197.71967,1462.1157 1204.47868,1455.35669 C1211.23869,1448.59668 1221.60637,1446.75084 1230.27843,1450.76679 C1231.82318,1451.48255 1233.51277,1451.50304 1234.99468,1450.958 C1236.47323,1450.41362 1237.74479,1449.30638 1238.4592,1447.76365 C1239.01298,1446.56804 1239.14639,1445.28673 1238.92561,1444.04139 C1238.29387,1440.23647 1239.54224,1436.33947 1242.26513,1433.61691 Z M1230.45182,1481.32883 C1235.62407,1476.15692 1235.62407,1467.77117 1230.45182,1462.59892 C1225.27991,1457.42701 1216.89382,1457.42701 1211.72157,1462.59892 C1206.54966,1467.77117 1206.54966,1476.15692 1211.72157,1481.32883 C1216.89382,1486.50142 1225.27991,1486.50142 1230.45182,1481.32883 Z M1496.91721,1501.60495 C1497.46255,1501.55951 1497.87197,1501.53658 1498.14465,1501.53658 L1498.14465,1515.8585 C1494.96182,1516.49474 1492.46149,1516.81326 1490.64244,1516.81326 C1484.54986,1516.81326 1479.79895,1515.2673 1476.3893,1512.17577 C1472.97924,1509.08423 1471.27441,1504.26454 1471.27441,1497.71751 L1471.27441,1417.3799 L1488.46023,1417.3799 L1488.46023,1494.85321 C1488.46023,1497.12672 1488.91509,1498.83154 1489.82401,1499.96809 C1490.73333,1501.10505 1492.55197,1501.67291 1495.27994,1501.67291 C1495.82569,1501.67291 1496.37145,1501.6504 1496.91721,1501.60495 Z M1506.36253,1515.99483 L1506.36253,1445.06856 L1523.68508,1445.06856 L1523.68508,1515.99483 L1506.36253,1515.99483 Z M1580.45976,1445.06856 L1597.50965,1445.06856 L1597.50965,1515.99483 L1583.32406,1515.99483 L1582.09662,1506.71984 C1580.36928,1510.17534 1577.68635,1512.88038 1574.04906,1514.83577 C1570.41177,1516.79034 1566.32003,1517.76803 1561.77342,1517.76803 C1554.22618,1517.76803 1548.24783,1515.44949 1543.83715,1510.81199 C1539.42728,1506.17408 1537.22214,1500.03646 1537.22214,1492.39833 L1537.22214,1445.06856 L1554.27162,1445.06856 L1554.27162,1488.57925 C1554.27162,1497.58117 1558.36378,1502.08233 1566.54726,1502.08233 C1570.00276,1502.08233 1572.91251,1500.90034 1575.27691,1498.53594 C1578.73242,1495.35352 1580.45976,1490.03433 1580.45976,1482.57798 L1580.45976,1445.06856 Z M1712.52635,1468.11972 L1712.52635,1515.99483 L1695.61281,1515.99483 L1695.61281,1471.93879 C1695.61281,1467.30129 1694.8173,1463.84579 1693.22589,1461.57228 C1691.63448,1459.29918 1688.7931,1458.16263 1684.70135,1458.16263 C1680.24564,1458.16263 1676.81306,1460.09509 1674.40322,1463.95961 C1671.99377,1467.82371 1670.78845,1472.25691 1670.78845,1477.25798 L1670.78845,1515.99483 L1653.87572,1515.99483 L1653.87572,1471.93879 C1653.87572,1467.30129 1653.0798,1463.84579 1651.4888,1461.57228 C1649.89739,1459.29918 1647.0556,1458.16263 1642.96345,1458.16263 C1638.50855,1458.16263 1635.05264,1460.09509 1632.59734,1463.95961 C1630.14246,1467.82371 1628.91502,1472.25691 1628.91502,1477.25798 L1628.91502,1515.99483 L1612.00147,1515.99483 L1612.00147,1445.06856 L1626.18705,1445.06856 L1627.55083,1454.47989 C1632.09744,1447.02354 1638.82667,1443.29536 1647.73769,1443.29536 C1657.46715,1443.29536 1664.24182,1447.15988 1668.06089,1454.88891 C1672.51661,1447.15988 1679.65444,1443.29536 1689.47519,1443.29536 C1696.84066,1443.29536 1702.52382,1445.54553 1706.52467,1450.04711 C1710.52552,1454.54827 1712.52635,1460.57247 1712.52635,1468.11972 Z M1505.81677,1435.2478 L1505.81677,1417.65257 L1524.0941,1417.65257 L1524.0941,1435.2478 L1505.81677,1435.2478 Z M1382.68453,1450.38815 C1386.95806,1455.11613 1389.09523,1461.20871 1389.09523,1468.66507 L1389.09523,1515.99483 L1372.04535,1515.99483 L1372.04535,1472.21146 C1372.04535,1467.84664 1371.15896,1464.5504 1369.38576,1462.32274 C1367.61256,1460.09509 1364.5894,1458.98106 1360.31547,1458.98106 C1355.58667,1458.98106 1351.97231,1461.004 1349.47198,1465.05071 C1346.97124,1469.09701 1345.72087,1473.6211 1345.72087,1478.62175 L1345.72087,1515.99483 L1328.6714,1515.99483 L1328.6714,1417.51623 L1345.72087,1417.51623 L1345.72087,1452.57036 C1347.7213,1449.66061 1350.49471,1447.38711 1354.04111,1445.75024 C1357.5875,1444.11379 1361.27024,1443.29536 1365.08931,1443.29536 C1372.54566,1443.29536 1378.4106,1445.65935 1382.68453,1450.38815 Z M1414.77201,1473.4389 L1445.46131,1473.4389 C1445.37001,1468.25606 1443.91534,1464.11846 1441.09648,1461.02693 C1438.5503,1458.29897 1434.95887,1456.93478 1430.32096,1456.93478 C1425.1377,1456.93478 1421.1823,1458.75383 1418.45474,1462.39071 C1416.09034,1465.39176 1414.8629,1469.07449 1414.77201,1473.4389 Z M1430.45729,1443.29536 C1441.91491,1443.29536 1450.55326,1447.65978 1456.37276,1456.38943 C1460.73759,1463.02736 1462.78346,1471.2567 1462.51038,1481.07745 C1462.41989,1483.25966 1462.37404,1484.85067 1462.37404,1485.85129 L1414.90834,1485.85129 C1414.72656,1491.67079 1416.45391,1496.30828 1420.09119,1499.76338 C1423.18313,1502.67354 1426.68408,1504.1282 1430.59364,1504.1282 C1435.23154,1504.1282 1438.68664,1502.99166 1440.96015,1500.71815 C1442.59701,1499.0817 1443.73315,1497.08086 1444.3698,1494.71687 L1460.73759,1494.71687 C1460.28272,1499.17259 1458.28229,1503.53741 1454.7359,1507.81094 C1449.0986,1514.44887 1441.14192,1517.76803 1430.86631,1517.76803 C1422.04618,1517.76803 1414.59023,1514.85787 1408.49765,1509.03838 C1401.22307,1502.03689 1397.58579,1492.58011 1397.58579,1480.66844 C1397.58579,1468.75596 1400.99544,1459.29918 1407.81556,1452.29769 C1413.63505,1446.296 1421.1823,1443.29536 1430.45729,1443.29536 Z" id="Combined-Shape"></path>
        </g>
    </g>
</svg>