<svg width="10" height="9" viewBox="0 0 10 9" fill="none" xmlns="http://www.w3.org/2000/svg">
<path d="M6.49925 2.36379C6.75484 2.10825 7.17095 2.10825 7.42653 2.36379C7.68212 2.61933 7.68212 3.03536 7.42653 3.2909C7.27848 3.43893 7.07588 3.50593 6.87017 3.47633C6.86082 3.47477 6.84991 3.47477 6.84056 3.47633C6.77978 3.46854 6.71588 3.47633 6.6551 3.50437C6.56938 3.54333 6.5086 3.615 6.47899 3.69759C6.44938 3.77861 6.45094 3.87055 6.4899 3.95313C6.70964 4.42837 6.60835 4.99711 6.23743 5.36796C5.86652 5.7388 5.29768 5.84008 4.82236 5.62038C4.73664 5.58143 4.64469 5.57987 4.56209 5.61103C4.48105 5.64064 4.41248 5.70141 4.37352 5.78555C4.34858 5.84008 4.33923 5.89618 4.34235 5.95227C4.34079 5.96318 4.34079 5.97409 4.34235 5.98499C4.37664 6.19379 4.30806 6.40726 4.15845 6.55685C3.90287 6.81239 3.48676 6.81239 3.23117 6.55685C3.1065 6.43219 3.03948 6.26858 3.03948 6.09251C3.03948 5.91799 3.10805 5.75283 3.23117 5.62817C3.37923 5.48014 3.58182 5.41314 3.78754 5.44275C3.79066 5.44275 3.79377 5.44275 3.79845 5.44275C3.82027 5.44742 3.84209 5.45054 3.86546 5.45054C3.91378 5.45054 3.96209 5.44119 4.00728 5.41938C4.09144 5.38042 4.15066 5.31186 4.18183 5.23239C4.213 5.14981 4.213 5.05632 4.17248 4.97062C3.95274 4.49538 4.05404 3.92664 4.42495 3.55579C4.79586 3.18495 5.3647 3.08367 5.84003 3.30337C5.92418 3.34232 6.01769 3.34388 6.09873 3.31428C6.17977 3.28467 6.2499 3.2239 6.28886 3.13976C6.31847 3.07432 6.32627 3.0042 6.31536 2.9372V2.93564C6.28107 2.72684 6.34964 2.51337 6.49925 2.36379ZM5.85094 4.98153C6.13457 4.69794 6.13457 4.23828 5.85094 3.95469C5.5673 3.6711 5.10755 3.6711 4.82391 3.95469C4.54027 4.23828 4.54027 4.69794 4.82391 4.98153C5.10755 5.26512 5.5673 5.26512 5.85094 4.98153ZM5.33197 0.0810547C7.75537 0.0810547 9.72058 2.04592 9.72058 4.46889C9.72058 6.89186 7.75693 8.85828 5.33197 8.85828C2.90701 8.85828 0.943359 6.89341 0.943359 4.46889C0.943359 2.04436 2.90857 0.0810547 5.33197 0.0810547ZM7.67121 3.53554C8.05927 3.14755 8.05927 2.5196 7.67121 2.13162C7.28316 1.74363 6.6551 1.74363 6.26704 2.13162C6.12367 2.27497 6.03328 2.4526 5.99587 2.63803C5.29301 2.37314 4.48573 2.54142 3.94806 3.07899C3.41039 3.61656 3.24208 4.4237 3.50858 5.128C3.32156 5.16539 3.1439 5.25577 2.99896 5.40068C2.61091 5.78866 2.61091 6.41661 2.99896 6.8046C3.38702 7.19258 4.01508 7.19258 4.40313 6.8046C4.54807 6.65969 4.64002 6.47894 4.67586 6.29196C4.89404 6.37298 5.12158 6.41349 5.34755 6.41349C5.85094 6.41349 6.34808 6.21872 6.71744 5.84943C7.25199 5.31498 7.42186 4.51252 7.1616 3.80978C7.34705 3.77082 7.52628 3.68045 7.67121 3.53554Z" fill="#29D391"/>
</svg>
