<?xml version="1.0" encoding="UTF-8"?>
<svg width="674px" height="674px" viewBox="0 0 674 674" version="1.1" xmlns="http://www.w3.org/2000/svg" xmlns:xlink="http://www.w3.org/1999/xlink">
    <!-- Generator: Sketch 63.1 (92452) - https://sketch.com -->
    <title>Group</title>
    <desc>Created with Sketch.</desc>
    <g id="Page-1" stroke="none" strokeWidth="1" fill="none" fill-rule="evenodd">
        <g id="Artboard" transform="translate(-1326.000000, -716.000000)" fill="#FFFFFF">
            <g id="Group" transform="translate(1326.000000, 716.000000)">
                <path d="M497.237487,0 C594.439603,1.05659704e-14 673.237487,78.797884 673.237487,176 L673.237487,497.237487 C673.237487,594.439603 594.439603,673.237487 497.237487,673.237487 L176,673.237487 C78.797884,673.237487 8.34919463e-14,594.439603 0,497.237487 L0,176 C1.65178834e-14,78.797884 78.797884,4.62774485e-14 176,0 L497.237487,0 Z M336.618744,47.6187436 C177.008451,47.6187436 47.6187436,177.008451 47.6187436,336.618744 C47.6187436,496.229036 177.008451,625.618744 336.618744,625.618744 C496.229036,625.618744 625.618744,496.229036 625.618744,336.618744 C625.618744,177.008451 496.229036,47.6187436 336.618744,47.6187436 Z" id="Combined-Shape"></path>
                <rect id="Rectangle" x="321.618744" y="534" width="28" height="28" rx="14"></rect>
            </g>
        </g>
    </g>
</svg>