<svg width="38" height="38" viewBox="0 0 38 38" fill="none" xmlns="http://www.w3.org/2000/svg">
<rect width="38" height="38" rx="8" fill="#32C48D"/>
<path fill-rule="evenodd" clip-rule="evenodd" d="M9 13C9 10.7909 10.7909 9 13 9H25C27.2091 9 29 10.7909 29 13V25C29 27.2091 27.2091 29 25 29H13C10.7909 29 9 27.2091 9 25V13ZM27 19C27 23.4183 23.4183 27 19 27C14.5817 27 11 23.4183 11 19C11 14.5817 14.5817 11 19 11C23.4183 11 27 14.5817 27 19ZM19 25C19.5523 25 20 24.5523 20 24C20 23.4477 19.5523 23 19 23C18.4477 23 18 23.4477 18 24C18 24.5523 18.4477 25 19 25Z" fill="white"/>
</svg>
