<svg width="14" height="13" viewBox="0 0 14 13" fill="none" xmlns="http://www.w3.org/2000/svg">
<path d="M8.41222 3.50723C8.78514 3.13437 9.39228 3.13437 9.7652 3.50723C10.1381 3.88008 10.1381 4.48712 9.7652 4.85997C9.54918 5.07596 9.25357 5.17372 8.95341 5.13052C8.93977 5.12825 8.92385 5.12825 8.91021 5.13052C8.82152 5.11916 8.72829 5.13052 8.63961 5.17145C8.51454 5.22828 8.42586 5.33287 8.38266 5.45336C8.33945 5.57159 8.34173 5.70573 8.39857 5.82622C8.7192 6.51965 8.57139 7.34948 8.0302 7.89058C7.489 8.43168 6.65902 8.57946 5.96547 8.25889C5.8404 8.20205 5.70624 8.19978 5.58572 8.24525C5.46748 8.28845 5.36743 8.37712 5.31058 8.49989C5.2742 8.57946 5.26055 8.66131 5.2651 8.74315C5.26283 8.75907 5.26283 8.77498 5.2651 8.7909C5.31513 9.09555 5.21508 9.40702 4.99678 9.62528C4.62385 9.99814 4.01671 9.99814 3.64379 9.62528C3.46188 9.4434 3.3641 9.20468 3.3641 8.94777C3.3641 8.69314 3.46415 8.45214 3.64379 8.27026C3.85981 8.05428 4.15542 7.95651 4.45558 7.99971C4.46013 7.99971 4.46468 7.99971 4.4715 7.99971C4.50333 8.00653 4.53517 8.01108 4.56928 8.01108C4.63977 8.01108 4.71026 7.99744 4.77621 7.96561C4.899 7.90877 4.98541 7.80874 5.03089 7.69279C5.07636 7.57229 5.07636 7.43588 5.01724 7.31083C4.69662 6.61741 4.84442 5.78757 5.38562 5.24647C5.92681 4.70537 6.7568 4.5576 7.45035 4.87816C7.57314 4.935 7.70957 4.93727 7.82782 4.89408C7.94606 4.85088 8.04839 4.76221 8.10524 4.63944C8.14844 4.54395 8.15981 4.44165 8.14389 4.34388V4.34161C8.09387 4.03696 8.19392 3.72549 8.41222 3.50723ZM7.46626 7.32675C7.88012 6.91297 7.88012 6.24228 7.46626 5.8285C7.05241 5.41471 6.3816 5.41471 5.96774 5.8285C5.55389 6.24228 5.55389 6.91297 5.96774 7.32675C6.3816 7.74053 7.05241 7.74053 7.46626 7.32675ZM6.70905 0.176514C10.245 0.176514 13.1124 3.04343 13.1124 6.57876C13.1124 10.1141 10.2473 12.9833 6.70905 12.9833C3.17081 12.9833 0.305664 10.1164 0.305664 6.57876C0.305664 3.04115 3.17309 0.176514 6.70905 0.176514ZM10.1222 5.21692C10.6884 4.65081 10.6884 3.73458 10.1222 3.16847C9.556 2.60236 8.63961 2.60236 8.0734 3.16847C7.8642 3.37764 7.73231 3.63682 7.67774 3.90737C6.6522 3.52087 5.4743 3.76641 4.6898 4.55077C3.90529 5.33514 3.65971 6.51283 4.04855 7.54046C3.77568 7.59502 3.51645 7.72689 3.30498 7.93833C2.73877 8.50443 2.73877 9.42066 3.30498 9.98677C3.87118 10.5529 4.78758 10.5529 5.35378 9.98677C5.56526 9.77533 5.69942 9.51161 5.75172 9.23878C6.07007 9.35701 6.40206 9.41612 6.73178 9.41612C7.46626 9.41612 8.19165 9.13193 8.73057 8.5931C9.51052 7.81328 9.75838 6.64242 9.37864 5.61706C9.64923 5.56022 9.91074 5.42836 10.1222 5.21692Z" fill="#A667F6"/>
</svg>
