<svg width="29" height="29" viewBox="0 0 29 29" fill="none" xmlns="http://www.w3.org/2000/svg">
<path d="M18.12 8.02911C18.9353 7.21391 20.2627 7.21391 21.0781 8.02911C21.8934 8.8443 21.8934 10.1715 21.0781 10.9867C20.6058 11.4589 19.9594 11.6726 19.3032 11.5782C19.2734 11.5732 19.2386 11.5732 19.2087 11.5782C19.0149 11.5533 18.811 11.5782 18.6171 11.6676C18.3437 11.7919 18.1498 12.0206 18.0553 12.284C17.9609 12.5425 17.9658 12.8358 18.0902 13.0992C18.7911 14.6153 18.468 16.4296 17.2847 17.6126C16.1015 18.7957 14.2869 19.1188 12.7705 18.4179C12.4971 18.2936 12.2038 18.2887 11.9403 18.388C11.6817 18.4825 11.463 18.6764 11.3387 18.9448C11.2592 19.1188 11.2293 19.2977 11.2393 19.4767C11.2343 19.5114 11.2343 19.5462 11.2393 19.581C11.3487 20.2471 11.1299 20.9281 10.6526 21.4053C9.83729 22.2205 8.50989 22.2205 7.69454 21.4053C7.29682 21.0076 7.08303 20.4857 7.08303 19.924C7.08303 19.3673 7.30179 18.8404 7.69454 18.4427C8.16683 17.9705 8.81316 17.7568 9.46938 17.8512C9.47932 17.8512 9.4893 17.8512 9.50421 17.8512C9.57381 17.8661 9.64342 17.8761 9.71795 17.8761C9.87211 17.8761 10.0262 17.8463 10.1704 17.7767C10.4389 17.6524 10.6278 17.4337 10.7272 17.1802C10.8266 16.9167 10.8266 16.6185 10.6974 16.3451C9.99638 14.829 10.3195 13.0147 11.5028 11.8317C12.686 10.6487 14.5006 10.3256 16.017 11.0264C16.2855 11.1507 16.5838 11.1557 16.8423 11.0612C17.1008 10.9668 17.3245 10.7729 17.4488 10.5045C17.5432 10.2958 17.5681 10.0721 17.5333 9.85834V9.85337C17.4239 9.18728 17.6427 8.50629 18.12 8.02911ZM16.0518 16.3799C16.9566 15.4752 16.9566 14.0089 16.0518 13.1042C15.147 12.1995 13.6803 12.1995 12.7755 13.1042C11.8707 14.0089 11.8707 15.4752 12.7755 16.3799C13.6803 17.2846 15.147 17.2846 16.0518 16.3799ZM14.3962 0.747017C22.1271 0.747017 28.3962 7.01507 28.3962 14.7445C28.3962 22.474 22.132 28.747 14.3962 28.747C6.66043 28.747 0.39624 22.479 0.39624 14.7445C0.39624 7.0101 6.6654 0.747017 14.3962 0.747017ZM21.8586 11.7671C23.0965 10.5294 23.0965 8.52617 21.8586 7.28849C20.6207 6.05077 18.6171 6.05077 17.3792 7.28849C16.9218 7.74575 16.6334 8.31242 16.5141 8.90397C14.2719 8.05892 11.6967 8.59577 9.98147 10.3107C8.26625 12.0255 7.72932 14.6004 8.5795 16.8471C7.9829 16.9664 7.41612 17.2548 6.95376 17.717C5.71585 18.9547 5.71585 20.9579 6.95376 22.1956C8.19168 23.4333 10.1953 23.4333 11.4332 22.1956C11.8955 21.7333 12.1889 21.1567 12.3032 20.5603C12.9992 20.8187 13.7251 20.948 14.446 20.948C16.0518 20.948 17.6377 20.3266 18.816 19.1486C20.5212 17.4436 21.0632 14.8837 20.2329 12.6419C20.8245 12.5177 21.3962 12.2293 21.8586 11.7671Z" fill="#B556FF"/>
</svg>
