<svg width="90" height="90" viewBox="0 0 90 90" fill="none" xmlns="http://www.w3.org/2000/svg">
<path fill-rule="evenodd" clip-rule="evenodd" d="M44.8531 89.7061C69.6247 89.7061 89.7061 69.6247 89.7061 44.8531C89.7061 20.0814 69.6247 0 44.8531 0C20.0814 0 0 20.0814 0 44.8531C0 69.6247 20.0814 89.7061 44.8531 89.7061ZM47.3635 68V48.2448C49.2446 47.2074 50.5225 45.1788 50.5225 42.8455C50.5225 39.4571 47.8256 36.7095 44.5002 36.7095C41.1744 36.7095 38.4778 39.4571 38.4778 42.8455C38.4778 45.1788 39.7558 47.2074 41.6369 48.2448V68H47.3635ZM37.0622 22.2797C37.6123 23.415 37.1552 24.7911 36.0398 25.3516C32.3832 27.1888 29.5313 30.245 27.7214 33.8505C26.3697 36.542 25.5997 39.537 25.5068 42.5602C25.415 45.5541 25.9918 48.573 27.3328 51.3444C28.9955 54.7775 31.8447 57.8486 36.0662 60.0487C37.1712 60.6239 37.6096 62.0032 37.0446 63.1291C36.4801 64.2551 35.1261 64.7021 34.021 64.1264C28.8647 61.4385 25.3622 57.6417 23.2963 53.3729C21.6187 49.9078 20.8973 46.143 21.0117 42.416C21.1253 38.7202 22.0674 35.0578 23.7197 31.7666C25.9566 27.31 29.4965 23.5253 34.0482 21.2375C35.1628 20.6775 36.5122 21.144 37.0622 22.2797ZM51.9378 22.2793C52.4878 21.1436 53.8376 20.6767 54.9522 21.2372C59.5038 23.5253 63.0434 27.31 65.2806 31.7666C66.9326 35.0578 67.8747 38.7202 67.9883 42.416C68.1027 46.143 67.3813 49.9078 65.7037 53.3729C63.6378 57.6417 60.135 61.4389 54.979 64.1264C53.8739 64.7017 52.5199 64.2551 51.9554 63.1291C51.3908 62.0036 51.8288 60.6243 52.9338 60.0487C57.1553 57.8486 60.0045 54.7775 61.6672 51.3444C63.0079 48.573 63.5847 45.5541 63.4929 42.5602C63.4003 39.5367 62.63 36.5416 61.2786 33.8505C59.4694 30.2446 56.6176 27.1888 52.9605 25.3512C51.8452 24.7911 51.3877 23.415 51.9378 22.2793ZM50.0521 31.7638C50.6568 30.9084 51.8276 30.7139 52.6672 31.3301C53.1579 31.6909 53.6073 32.0635 54.0151 32.4466C56.6072 34.8821 58.146 38.1383 58.4704 41.5886C58.7932 45.0171 57.9119 48.6264 55.6697 51.7984C55.2762 52.3561 54.8531 52.8869 54.4018 53.3854C53.7003 54.1618 52.5126 54.212 51.75 53.4973C50.9869 52.7825 50.9383 51.572 51.6402 50.7956C52.0131 50.3833 52.3428 49.9729 52.6289 49.568C54.3146 47.1848 54.979 44.4905 54.7395 41.9479C54.5028 39.4279 53.3752 37.0463 51.4738 35.2601C51.1483 34.9553 50.8163 34.6767 50.4778 34.4284C49.6382 33.8123 49.4477 32.6193 50.0521 31.7638ZM38.9479 31.765C39.5527 32.6205 39.3618 33.8134 38.5222 34.4296C38.1841 34.6779 37.8521 34.9565 37.5262 35.2609C35.6248 37.047 34.4972 39.4291 34.2605 41.9487C34.021 44.4913 34.6858 47.1852 36.3711 49.5684C36.6572 49.9733 36.9869 50.3833 37.3598 50.796C38.0617 51.5728 38.0131 52.7829 37.2497 53.4977C36.4874 54.2124 35.2997 54.1622 34.5982 53.3858C34.1473 52.8873 33.7246 52.3569 33.3303 51.7996C31.0877 48.6276 30.2064 45.0171 30.5293 41.589C30.8536 38.1387 32.3924 34.8829 34.9849 32.447C35.3927 32.0643 35.8417 31.6917 36.3328 31.3308C37.1724 30.7151 38.3432 30.9095 38.9479 31.765Z" fill="#68DF91"/>
</svg>
