<svg width="5" height="16" viewBox="0 0 5 16" fill="none" xmlns="http://www.w3.org/2000/svg">
<g opacity="0.3">
<path d="M4.70557 2.16473C4.70557 3.2693 3.81014 4.16473 2.70557 4.16473C1.601 4.16473 0.705566 3.2693 0.705566 2.16473C0.705566 1.06016 1.601 0.164734 2.70557 0.164734C3.81014 0.164734 4.70557 1.06016 4.70557 2.16473Z" fill="#C1C7D5"/>
<path d="M4.70557 7.75641C4.70557 8.86098 3.81014 9.75641 2.70557 9.75641C1.601 9.75641 0.705566 8.86098 0.705566 7.75641C0.705566 6.65184 1.601 5.75641 2.70557 5.75641C3.81014 5.75641 4.70557 6.65184 4.70557 7.75641Z" fill="#C1C7D5"/>
<path d="M2.70557 15.3478C3.81014 15.3478 4.70557 14.4523 4.70557 13.3478C4.70557 12.2432 3.81014 11.3478 2.70557 11.3478C1.601 11.3478 0.705566 12.2432 0.705566 13.3478C0.705566 14.4523 1.601 15.3478 2.70557 15.3478Z" fill="#C1C7D5"/>
</g>
</svg>
