<svg width="39" height="32" viewBox="0 0 39 32" fill="none" xmlns="http://www.w3.org/2000/svg">
<path d="M38.2297 19.0177L32.8676 16L38.2297 12.9823C38.463 12.8513 38.6573 12.6607 38.7926 12.43C38.928 12.1994 38.9995 11.9369 39 11.6695C38.9995 11.4022 38.928 11.1397 38.7926 10.9091C38.6573 10.6784 38.463 10.4878 38.2297 10.3568L20.2401 0.202151C20.0105 0.0697198 19.7501 0 19.4849 0C19.2198 0 18.9593 0.0697198 18.7297 0.202151L0.770384 10.3417C0.537069 10.4728 0.342793 10.6633 0.207438 10.894C0.0720837 11.1247 0.000512751 11.3871 5.15228e-05 11.6545C-0.00218002 11.9244 0.0681148 12.19 0.203607 12.4235C0.339099 12.657 0.534826 12.85 0.770384 12.9823L6.1325 16L0.770384 19.0177C0.537069 19.1487 0.342793 19.3393 0.207438 19.57C0.0720837 19.8006 0.000512751 20.0631 5.15228e-05 20.3305C0.000512751 20.5978 0.0720837 20.8603 0.207438 21.0909C0.342793 21.3216 0.537069 21.5122 0.770384 21.6432L18.7599 31.7978C18.9895 31.9303 19.25 32 19.5151 32C19.7803 32 20.0407 31.9303 20.2704 31.7978L38.2297 21.6432C38.463 21.5122 38.6573 21.3216 38.7926 21.0909C38.928 20.8603 38.9995 20.5978 39 20.3305C38.9995 20.0631 38.928 19.8006 38.7926 19.57C38.6573 19.3393 38.463 19.1487 38.2297 19.0177V19.0177ZM19.5 3.25006L34.4082 11.6545L19.5 20.0739L4.59184 11.6545L19.5 3.25006ZM19.5 28.7499L4.57673 20.3305L9.19872 17.7352L18.7599 23.1219C18.9895 23.2543 19.25 23.324 19.5151 23.324C19.7803 23.324 20.0407 23.2543 20.2704 23.1219L29.8315 17.7352L34.4535 20.3305L19.5 28.7499Z" fill="black"/>
</svg>
