<svg width="10" height="11" viewBox="0 0 10 11" fill="none" xmlns="http://www.w3.org/2000/svg">
<path fill-rule="evenodd" clip-rule="evenodd" d="M4.64268 0.0170898C3.45853 0.0170898 2.32288 0.487493 1.48555 1.32482C1.07093 1.7394 0.742024 2.2316 0.517627 2.7733C0.29323 3.315 0.177734 3.8956 0.177734 4.48194C0.177734 5.06828 0.29323 5.64888 0.517627 6.19059C0.742024 6.73229 1.07093 7.22449 1.48555 7.63907L4.64268 10.7962L7.79981 7.63907C8.63713 6.80175 9.10754 5.6661 9.10754 4.48194C9.10754 3.29779 8.63713 2.16214 7.79981 1.32482C6.96249 0.487493 5.82684 0.0170898 4.64268 0.0170898ZM4.64259 6.80501C5.90694 6.80501 6.9319 5.78005 6.9319 4.5157C6.9319 3.25134 5.90694 2.22638 4.64259 2.22638C3.37823 2.22638 2.35327 3.25134 2.35327 4.5157C2.35327 5.78005 3.37823 6.80501 4.64259 6.80501Z" fill="#587DFF"/>
</svg>
