<svg width="43" height="43" viewBox="0 0 43 43" fill="none" xmlns="http://www.w3.org/2000/svg">
<path fill-rule="evenodd" clip-rule="evenodd" d="M23.241 7.55092C23.241 8.7204 22.2946 9.67356 21.1251 9.67356C19.9556 9.67356 19.0092 8.7204 19.0092 7.55092V2.12264C19.0092 0.9464 19.9556 0 21.1251 0C22.2946 0 23.241 0.9464 23.241 2.12264V7.55092ZM17.6571 7.3008V3.1434C10.2819 4.53596 4.53589 10.282 3.14333 17.6571H7.30073C8.56485 12.5804 12.5803 8.56492 17.6571 7.3008ZM24.5928 34.956V39.1066C31.9612 37.714 37.7072 31.9748 39.1065 24.5996H34.9491C33.685 29.6696 29.6628 33.6918 24.5928 34.956ZM3.14333 24.5996H7.30073C8.56485 29.6696 12.5871 33.6851 17.6571 34.9492V39.1066C10.2887 37.714 4.54265 31.9748 3.14333 24.5996ZM34.9491 17.6571H39.1065C37.714 10.282 31.968 4.53596 24.5928 3.1434V7.29404C29.6696 8.55816 33.685 12.5804 34.9491 17.6571ZM7.55092 19.0091C8.7204 19.0091 9.6668 19.9555 9.6668 21.125C9.6668 22.2945 8.7204 23.2476 7.55092 23.2476H2.11588C0.9464 23.2476 0 22.2945 0 21.125C0 19.9555 0.9464 19.0091 2.11588 19.0091H7.55092ZM40.1343 19.0091H34.6992C33.5297 19.0091 32.5833 19.9555 32.5833 21.125C32.5833 22.2945 33.5297 23.2476 34.6992 23.2476H40.1343C41.3037 23.2476 42.2501 22.2945 42.2501 21.125C42.2501 19.9555 41.3037 19.0091 40.1343 19.0091ZM21.1251 32.5832C19.9556 32.5832 19.0092 33.5296 19.0092 34.6991V40.1341C19.0092 41.3036 19.9556 42.25 21.1251 42.25C22.2946 42.25 23.241 41.3036 23.241 40.1341V34.6991C23.241 33.5296 22.2946 32.5832 21.1251 32.5832ZM27.4275 21.1268C27.4275 24.6065 24.6067 27.4273 21.127 27.4273C17.6473 27.4273 14.8265 24.6065 14.8265 21.1268C14.8265 17.6471 17.6473 14.8263 21.127 14.8263C24.6067 14.8263 27.4275 17.6471 27.4275 21.1268Z" fill="black"/>
</svg>
