<svg width="36" height="35" viewBox="0 0 36 35" fill="none" xmlns="http://www.w3.org/2000/svg">
<path d="M22.2374 9.10261C23.2566 8.08361 24.9159 8.08361 25.935 9.10261C26.9542 10.1216 26.9542 11.7806 25.935 12.7996C25.3447 13.3898 24.5368 13.657 23.7165 13.539C23.6792 13.5328 23.6357 13.5328 23.5984 13.539C23.356 13.5079 23.1012 13.539 22.8589 13.6508C22.5171 13.8061 22.2747 14.092 22.1566 14.4213C22.0386 14.7444 22.0448 15.111 22.2001 15.4403C23.0764 17.3353 22.6724 19.6032 21.1934 21.082C19.7143 22.5608 17.446 22.9647 15.5506 22.0886C15.2088 21.9333 14.8422 21.927 14.5128 22.0513C14.1897 22.1694 13.9162 22.4117 13.7609 22.7472C13.6614 22.9647 13.6241 23.1884 13.6366 23.412C13.6303 23.4555 13.6303 23.499 13.6366 23.5425C13.7733 24.3751 13.4998 25.2263 12.9033 25.8228C11.8841 26.8418 10.2248 26.8418 9.20563 25.8228C8.70847 25.3258 8.44125 24.6734 8.44125 23.9712C8.44125 23.2753 8.71469 22.6167 9.20563 22.1197C9.79601 21.5294 10.6039 21.2622 11.4242 21.3803C11.4366 21.3803 11.4491 21.3803 11.4677 21.3803C11.5547 21.3989 11.6417 21.4113 11.7349 21.4113C11.9276 21.4113 12.1202 21.374 12.3004 21.2871C12.636 21.1317 12.8722 20.8583 12.9965 20.5415C13.1208 20.2121 13.1208 19.8393 12.9592 19.4976C12.0829 17.6025 12.4869 15.3346 13.9659 13.8559C15.445 12.3771 17.7133 11.9732 19.6087 12.8493C19.9443 13.0046 20.3171 13.0108 20.6403 12.8928C20.9634 12.7747 21.2431 12.5324 21.3985 12.1969C21.5165 11.9359 21.5476 11.6563 21.5041 11.3891V11.3829C21.3674 10.5503 21.6408 9.69909 22.2374 9.10261ZM19.6522 19.5411C20.7832 18.4103 20.7832 16.5773 19.6522 15.4465C18.5212 14.3156 16.6879 14.3156 15.5568 15.4465C14.4258 16.5773 14.4258 18.4103 15.5568 19.5411C16.6879 20.6719 18.5212 20.6719 19.6522 19.5411ZM17.5828 0C27.2463 0 35.0828 7.83508 35.0828 17.4969C35.0828 27.1587 27.2525 35 17.5828 35C7.91302 35 0.0827637 27.1649 0.0827637 17.4969C0.0827637 7.82887 7.91923 0 17.5828 0ZM26.9107 13.7751C28.4581 12.2279 28.4581 9.72395 26.9107 8.17682C25.3633 6.62968 22.8589 6.62968 21.3115 8.17682C20.7397 8.74845 20.3793 9.45677 20.2301 10.1962C17.4274 9.13989 14.2083 9.81094 12.0643 11.9546C9.9203 14.0982 9.24913 17.3167 10.3118 20.1252C9.56607 20.2743 8.85762 20.6347 8.27967 21.2125C6.73227 22.7596 6.73227 25.2636 8.27967 26.8108C9.82708 28.3579 12.3315 28.3579 13.8789 26.8108C14.4569 26.2329 14.8235 25.5122 14.9665 24.7666C15.8365 25.0897 16.7438 25.2512 17.6449 25.2512C19.6522 25.2512 21.6346 24.4745 23.1074 23.002C25.239 20.8708 25.9164 17.6709 24.8786 14.8686C25.6181 14.7133 26.3328 14.3529 26.9107 13.7751Z" fill="white"/>
</svg>
