<?xml version="1.0" encoding="UTF-8"?>
<svg width="112px" height="37px" viewBox="0 0 112 37" version="1.1" xmlns="http://www.w3.org/2000/svg" xmlns:xlink="http://www.w3.org/1999/xlink">
    <!-- Generator: Sketch 49.2 (51160) - http://www.bohemiancoding.com/sketch -->
    <title>Fill-1 Copy</title>
    <desc>Created with Sketch.</desc>
    <defs></defs>
    <g id="Page-1" stroke="none" strokeWidth="1" fill="none" fill-rule="evenodd">
        <g id="Artboard-Copy" transform="translate(-326.000000, -32.000000)" fill="#FFFFFF" fill-rule="nonzero">
            <path d="M354.459635,46.4267688 C353.865432,47.0210466 353.133095,47.3931128 352.365977,47.5434212 C353.434921,50.420527 352.741597,53.7129467 350.547004,55.907389 C349.032351,57.4220413 346.994115,58.2237113 344.930625,58.2237113 C344.001707,58.2237113 343.068177,58.0589618 342.174643,57.7256067 C342.025847,58.4968069 341.652949,59.2334542 341.055723,59.8307563 C339.465009,61.4213943 336.886025,61.4213943 335.295311,59.8307563 C333.704673,58.2401182 333.704673,55.660983 335.295311,54.0703449 C335.889136,53.4765964 336.620868,53.1046815 337.387305,52.9541462 C336.297569,50.0679675 336.986584,46.7558898 339.191006,44.5514672 C341.393463,42.3487835 344.70176,41.6590887 347.586124,42.7447419 C347.738323,41.9832195 348.109028,41.2567793 348.699223,40.6663575 C350.289937,39.0757194 352.868996,39.0757194 354.459635,40.6663575 C356.050348,42.2570712 356.050348,44.8361308 354.459635,46.4267688 Z M344.869005,32.257025 C334.927933,32.257025 326.869043,40.3159151 326.869043,50.2570628 C326.869043,60.1981348 334.927933,68.257025 344.869005,68.257025 C354.810153,68.257025 362.869043,60.1981348 362.869043,50.2570628 C362.869043,40.3159151 354.810153,32.257025 344.869005,32.257025 Z M346.995703,52.3560124 C345.832022,53.5198442 343.945153,53.5198442 342.781396,52.3560124 C341.617716,51.192332 341.617716,49.3055379 342.781396,48.1417818 C343.945153,46.9781014 345.832022,46.9781014 346.995703,48.1417818 C348.159459,49.3055379 348.159459,51.192332 346.995703,52.3560124 Z M349.653697,41.6208311 C349.041046,42.2334059 348.760163,43.1102302 348.902306,43.9663379 C348.95198,44.2465407 348.921964,44.5348334 348.797362,44.8038461 C348.63662,45.1509619 348.35052,45.4000897 348.017845,45.5225744 C347.684415,45.6452105 347.304258,45.6405984 346.956689,45.4795536 C345.005477,44.5759641 342.672748,44.9912781 341.151745,46.5122813 C339.630968,48.0330577 339.215881,50.3654845 340.11879,52.316394 C340.282028,52.6691046 340.283842,53.0547802 340.155838,53.3913864 C340.031539,53.7180879 339.785133,53.9985931 339.442932,54.1570672 C339.254517,54.244243 339.056349,54.2856761 338.861356,54.2856761 C338.768736,54.2856761 338.677629,54.2731252 338.587731,54.2549793 C337.697222,54.1330238 336.864552,54.409673 336.260446,55.0140067 C335.752361,55.5220159 335.472536,56.197572 335.472536,56.9162247 C335.472536,57.6346505 335.752361,58.3101311 336.260446,58.8184427 C337.309429,59.8668969 339.015974,59.8668969 340.064731,58.8184427 C340.67723,58.2054898 340.958189,57.3287411 340.81597,56.4730115 C340.808258,56.426059 340.809997,56.3803918 340.81597,56.3357075 C340.799715,56.1091865 340.838426,55.8755581 340.940648,55.6549344 C341.100709,55.3091041 341.385449,55.0606567 341.716535,54.9377939 C342.050798,54.8137214 342.432391,54.817653 342.781321,54.979227 C344.732684,55.8830434 347.065262,55.4672757 348.586265,53.9465749 C350.107117,52.4257229 350.522204,50.0932206 349.619144,48.1423867 C349.459763,47.7981441 349.454092,47.4221463 349.573099,47.0912106 C349.694223,46.754302 349.944485,46.4640435 350.295078,46.3017134 C350.541257,46.1876212 350.803617,46.1534464 351.054332,46.1860334 C351.093195,46.1814969 351.132662,46.1800604 351.173188,46.1858066 C352.021357,46.306628 352.853572,46.0295251 353.45783,45.4250403 C354.506663,44.3762081 354.506663,42.6696632 353.45783,41.6208311 C352.409074,40.5718477 350.702453,40.5718477 349.653697,41.6208311 Z M397.677312,55.7241912 C397.778021,55.7157988 397.853629,55.7115646 397.903984,55.7115646 L397.903984,58.3564031 C397.316209,58.4738977 396.854471,58.5327206 396.518546,58.5327206 C395.393425,58.5327206 394.516072,58.2472254 393.886409,57.6763104 C393.256672,57.1053955 392.94184,56.2153399 392.94184,55.0062947 L392.94184,40.1702944 L396.115556,40.1702944 L396.115556,54.4773421 C396.115556,54.8971925 396.199556,55.2120235 396.367406,55.421911 C396.535331,55.631874 396.871181,55.7367421 397.374956,55.7367421 C397.475741,55.7367421 397.576526,55.7325837 397.677312,55.7241912 Z M399.421585,58.3815805 L402.620553,58.3815805 L402.620553,45.283578 L399.421585,45.283578 L399.421585,58.3815805 Z M413.10517,45.283578 L416.253784,45.283578 L416.253784,58.3815805 L413.634123,58.3815805 L413.40745,56.6687601 C413.088461,57.3068905 412.593003,57.8064316 411.921302,58.1675347 C411.249602,58.5284865 410.493977,58.7090382 409.654352,58.7090382 C408.260597,58.7090382 407.156571,58.2808708 406.342048,57.4244606 C405.527675,56.5679748 405.120451,55.4345375 405.120451,54.0239974 L405.120451,45.283578 L408.268989,45.283578 L408.268989,53.3187273 C408.268989,54.9811172 409.02469,55.8123499 410.53594,55.8123499 C411.17407,55.8123499 411.711415,55.5940701 412.14805,55.1574348 C412.786181,54.5697349 413.10517,53.5874376 413.10517,52.2104673 L413.10517,45.283578 Z M437.493996,49.5404515 L437.493996,58.3815805 L434.37056,58.3815805 L434.37056,50.2457216 C434.37056,49.3893114 434.223654,48.7511812 433.929766,48.3313308 C433.635879,47.9115559 433.11116,47.7016685 432.355535,47.7016685 C431.532695,47.7016685 430.898799,48.0585376 430.453771,48.7722001 C430.008818,49.485787 429.786229,50.3044689 429.786229,51.2280189 L429.786229,58.3815805 L426.662944,58.3815805 L426.662944,50.2457216 C426.662944,49.3893114 426.515962,48.7511812 426.22215,48.3313308 C425.928263,47.9115559 425.403468,47.7016685 424.647768,47.7016685 C423.825079,47.7016685 423.186873,48.0585376 422.733453,48.7722001 C422.280108,49.485787 422.053436,50.3044689 422.053436,51.2280189 L422.053436,58.3815805 L418.929999,58.3815805 L418.929999,45.283578 L421.54966,45.283578 L421.80151,47.0215758 C422.641135,45.6446055 423.883826,44.9561205 425.529431,44.9561205 C427.326176,44.9561205 428.577259,45.669783 429.282529,47.0971081 C430.10537,45.669783 431.423517,44.9561205 433.237123,44.9561205 C434.597308,44.9561205 435.646821,45.3716612 436.385661,46.2029695 C437.124501,47.0342024 437.493996,48.1466964 437.493996,49.5404515 Z M399.3208,43.4699724 L402.696086,43.4699724 L402.696086,40.2206492 L399.3208,40.2206492 L399.3208,43.4699724 Z M376.581888,46.2659509 C377.371083,47.1390704 377.765756,48.2641909 377.765756,49.6411612 L377.765756,58.3815805 L374.617143,58.3815805 L374.617143,50.2960764 C374.617143,49.4900211 374.453452,48.8813022 374.125994,48.4699199 C373.798536,48.0585376 373.240248,47.8528086 372.450977,47.8528086 C371.577707,47.8528086 370.910241,48.226387 370.448503,48.973695 C369.986691,49.7209275 369.755784,50.5563943 369.755784,51.4798686 L369.755784,58.3815805 L366.607246,58.3815805 L366.607246,40.1954718 L369.755784,40.1954718 L369.755784,46.6689407 C370.125204,46.1315958 370.637372,45.7117454 371.292287,45.4094652 C371.947202,45.1072606 372.627295,44.9561205 373.332565,44.9561205 C374.709535,44.9561205 375.792618,45.3926801 376.581888,46.2659509 Z M382.507503,50.5227488 C382.524288,49.7167691 382.75096,49.0366764 383.187595,48.4824708 C383.691295,47.8108462 384.421742,47.4749206 385.378938,47.4749206 C386.235424,47.4749206 386.898656,47.7268459 387.368861,48.230621 C387.889421,48.801536 388.158056,49.565629 388.174916,50.5227488 L382.507503,50.5227488 Z M385.404115,44.9561205 C383.691295,44.9561205 382.29754,45.5102503 381.22285,46.6185859 C379.963374,47.9115559 379.333712,49.6579462 379.333712,51.8578323 C379.333712,54.0575673 380.005412,55.8039575 381.348812,57.0969274 C382.473933,58.1716175 383.850828,58.7090382 385.479648,58.7090382 C387.377253,58.7090382 388.846617,58.0960853 389.887661,56.870255 C390.542576,56.0810603 390.911996,55.275005 390.995997,54.4521647 L387.973346,54.4521647 C387.855776,54.8887244 387.645964,55.2582201 387.343684,55.5604245 C386.923833,55.980275 386.285779,56.1901624 385.429293,56.1901624 C384.707313,56.1901624 384.060791,55.9215278 383.4898,55.3841071 C382.8181,54.7460524 382.49911,53.8896422 382.53268,52.8149521 L391.298201,52.8149521 C391.298201,52.6301666 391.306669,52.3363545 391.323379,51.9333646 C391.373809,50.1197589 390.995997,48.600041 390.189941,47.3742108 C389.115251,45.7621002 387.520001,44.9561205 385.404115,44.9561205 Z" id="Fill-1-Copy"></path>
        </g>
    </g>
</svg>