<svg width="29" height="29" viewBox="0 0 29 29" fill="none" xmlns="http://www.w3.org/2000/svg">
<path fill-rule="evenodd" clip-rule="evenodd" d="M14.3402 28.6805C22.2601 28.6805 28.6805 22.2601 28.6805 14.3402C28.6805 6.42034 22.2601 0 14.3402 0C6.42034 0 0 6.42034 0 14.3402C0 22.2601 6.42034 28.6805 14.3402 28.6805ZM9.27632 9.82812C9.27632 9.22966 8.79118 8.74452 8.19272 8.74452C7.59427 8.74452 7.10913 9.22966 7.10913 9.82812V18.8524C7.10913 19.4508 7.59427 19.9359 8.19272 19.9359C8.79118 19.9359 9.27632 19.4508 9.27632 18.8524V9.82812ZM21.5713 9.82813C21.5713 9.22968 21.0861 8.74454 20.4877 8.74454C19.8892 8.74454 19.4041 9.22968 19.4041 9.82813V18.8524C19.4041 19.4508 19.8892 19.936 20.4877 19.936C21.0861 19.936 21.5713 19.4508 21.5713 18.8524V9.82813ZM17.414 12.2465C18.0125 12.2465 18.4976 12.7316 18.4976 13.3301V18.8524C18.4976 19.4508 18.0125 19.9359 17.414 19.9359C16.8156 19.9359 16.3304 19.4508 16.3304 18.8524V13.3301C16.3304 12.7316 16.8156 12.2465 17.414 12.2465ZM12.35 13.3301C12.35 12.7316 11.8649 12.2465 11.2665 12.2465C10.668 12.2465 10.1829 12.7316 10.1829 13.3301V18.8524C10.1829 19.4508 10.668 19.9359 11.2665 19.9359C11.8649 19.9359 12.35 19.4508 12.35 18.8524V13.3301ZM14.3402 15.479C14.9387 15.479 15.4238 15.9642 15.4238 16.5626V18.8524C15.4238 19.4508 14.9387 19.936 14.3402 19.936C13.7417 19.936 13.2566 19.4508 13.2566 18.8524V16.5626C13.2566 15.9642 13.7417 15.479 14.3402 15.479Z" fill="#484B58"/>
</svg>
