<svg width="90" height="90" viewBox="0 0 90 90" fill="none" xmlns="http://www.w3.org/2000/svg">
<path fill-rule="evenodd" clip-rule="evenodd" d="M44.8531 89.7061C69.6247 89.7061 89.7061 69.6247 89.7061 44.8531C89.7061 20.0814 69.6247 0 44.8531 0C20.0814 0 0 20.0814 0 44.8531C0 69.6247 20.0814 89.7061 44.8531 89.7061ZM67.7799 29.9933C67.7799 28.0941 66.2417 26.5544 64.3443 26.5544C62.4468 26.5544 60.9087 28.0941 60.9087 29.9933V58.6323C60.9087 60.5316 62.4468 62.0712 64.3443 62.0712C66.2417 62.0712 67.7799 60.5316 67.7799 58.6323V29.9933ZM28.7977 29.9933C28.7977 28.0941 27.2595 26.5544 25.3621 26.5544C23.4647 26.5544 21.9265 28.0941 21.9265 29.9933V58.6323C21.9265 60.5316 23.4647 62.0712 25.3621 62.0712C27.2595 62.0712 28.7977 60.5316 28.7977 58.6323V29.9933ZM54.5987 37.6681C56.4962 37.6681 58.0343 39.2077 58.0343 41.107V58.6323C58.0343 60.5316 56.4962 62.0712 54.5987 62.0712C52.7013 62.0712 51.1631 60.5316 51.1631 58.6323V41.107C51.1631 39.2077 52.7013 37.6681 54.5987 37.6681ZM38.5433 41.107C38.5433 39.2077 37.0051 37.6681 35.1077 37.6681C33.2102 37.6681 31.6721 39.2077 31.6721 41.107V58.6323C31.6721 60.5316 33.2102 62.0712 35.1077 62.0712C37.0051 62.0712 38.5433 60.5316 38.5433 58.6323V41.107ZM44.8532 47.9268C46.7506 47.9268 48.2888 49.4665 48.2888 51.3657V58.6323C48.2888 60.5316 46.7506 62.0712 44.8532 62.0712C42.9558 62.0712 41.4176 60.5316 41.4176 58.6323V51.3657C41.4176 49.4665 42.9558 47.9268 44.8532 47.9268Z" fill="#009FF9"/>
</svg>
