<svg width="19" height="19" viewBox="0 0 19 19" fill="none" xmlns="http://www.w3.org/2000/svg">
<path d="M7.20978 5.74555C10.3794 5.74139 12.9477 3.1706 12.9477 -3.05176e-05C12.9477 3.17317 15.5201 5.74555 18.6933 5.74555C15.5201 5.74555 12.9477 8.31793 12.9477 11.4911C12.9477 8.3205 10.3794 5.74971 7.20978 5.74555Z" fill="white"/>
<path fill-rule="evenodd" clip-rule="evenodd" d="M10.9644 1.03505C10.3009 0.877127 9.60853 0.793518 8.89668 0.793518C3.98318 0.793518 0 4.7767 0 9.69019C0 14.6037 3.98318 18.5869 8.89668 18.5869C13.8102 18.5869 17.7934 14.6037 17.7934 9.69019C17.7934 9.00853 17.7167 8.34476 17.5715 7.70706C16.4603 8.0253 15.5504 8.81974 15.0765 9.85543C15.0578 10.5666 14.919 11.2479 14.6797 11.8797C14.6256 12.1272 14.5208 12.3557 14.3768 12.5539C13.3439 14.5263 11.2775 15.8722 8.89668 15.8722C5.48247 15.8722 2.71471 13.1044 2.71471 9.69019C2.71471 6.27599 5.48247 3.50823 8.89668 3.50823C8.91497 3.50823 8.93325 3.50831 8.95151 3.50847C9.92918 3.00996 10.6708 2.11479 10.9644 1.03505ZM14.6356 7.38774C14.0216 5.85864 12.8142 4.63175 11.2983 3.99207C11.5036 3.77966 11.6926 3.55147 11.8634 3.30949C12.2196 2.80486 12.4965 2.24028 12.6761 1.63386C12.8687 1.72436 13.0575 1.82156 13.2422 1.92517C13.4187 2.4216 13.6615 2.8866 13.96 3.30949C14.3398 3.84756 14.8097 4.31747 15.3478 4.69726C15.7596 4.98791 16.2113 5.22579 16.693 5.40104C16.7992 5.5935 16.8983 5.79031 16.9903 5.99114C16.3964 6.17089 15.8432 6.44418 15.3478 6.79388C15.0946 6.97263 14.8564 7.17135 14.6356 7.38774Z" fill="white"/>
</svg>
