<svg width="13" height="12" viewBox="0 0 13 12" fill="none" xmlns="http://www.w3.org/2000/svg">
<path d="M6.47664 1.26587V1.88624M10.1989 8.71032H11.4396M7.71738 8.71032H6.47664V11.1918M6.47664 4.36772V6.22884M6.47664 6.22884H6.48284M6.47664 6.22884H8.96433M8.95812 11.1918H11.4396M1.51367 6.22884H3.99516M11.4396 6.22884H11.4458M2.13404 3.74735H3.37478C3.53932 3.74735 3.69711 3.68199 3.81345 3.56565C3.9298 3.44931 3.99516 3.29151 3.99516 3.12698V1.88624C3.99516 1.72171 3.9298 1.56391 3.81345 1.44757C3.69711 1.33123 3.53932 1.26587 3.37478 1.26587H2.13404C1.96951 1.26587 1.81172 1.33123 1.69537 1.44757C1.57903 1.56391 1.51367 1.72171 1.51367 1.88624V3.12698C1.51367 3.29151 1.57903 3.44931 1.69537 3.56565C1.81172 3.68199 1.96951 3.74735 2.13404 3.74735ZM9.57849 3.74735H10.8192C10.9838 3.74735 11.1416 3.68199 11.2579 3.56565C11.3742 3.44931 11.4396 3.29151 11.4396 3.12698V1.88624C11.4396 1.72171 11.3742 1.56391 11.2579 1.44757C11.1416 1.33123 10.9838 1.26587 10.8192 1.26587H9.57849C9.41396 1.26587 9.25617 1.33123 9.13983 1.44757C9.02348 1.56391 8.95812 1.72171 8.95812 1.88624V3.12698C8.95812 3.29151 9.02348 3.44931 9.13983 3.56565C9.25617 3.68199 9.41396 3.74735 9.57849 3.74735ZM2.13404 11.1918H3.37478C3.53932 11.1918 3.69711 11.1264 3.81345 11.0101C3.9298 10.8938 3.99516 10.736 3.99516 10.5714V9.33069C3.99516 9.16616 3.9298 9.00837 3.81345 8.89202C3.69711 8.77568 3.53932 8.71032 3.37478 8.71032H2.13404C1.96951 8.71032 1.81172 8.77568 1.69537 8.89202C1.57903 9.00837 1.51367 9.16616 1.51367 9.33069V10.5714C1.51367 10.736 1.57903 10.8938 1.69537 11.0101C1.81172 11.1264 1.96951 11.1918 2.13404 11.1918Z" stroke="#474DFF" strokeWidth="1.4" strokeLinecap="round" strokeLinejoin="round"/>
</svg>
