<svg width="12" height="12" viewBox="0 0 12 12" fill="none" xmlns="http://www.w3.org/2000/svg">
<path fill-rule="evenodd" clip-rule="evenodd" d="M4.71844 1.80315C3.86545 1.80315 3.0474 2.14199 2.44424 2.74515C1.84109 3.3483 1.50224 4.16635 1.50224 5.01934C1.50224 5.4417 1.58543 5.85992 1.74706 6.25012C1.90869 6.64033 2.14559 6.99488 2.44424 7.29353C2.7429 7.59218 3.09745 7.82909 3.48765 7.99071C3.87786 8.15234 4.29608 8.23553 4.71844 8.23553C5.14079 8.23553 5.55901 8.15234 5.94922 7.99071C6.33943 7.82909 6.69398 7.59218 6.99263 7.29353C7.29128 6.99488 7.52818 6.64033 7.68981 6.25012C7.85144 5.85992 7.93463 5.4417 7.93463 5.01934C7.93463 4.16635 7.59578 3.3483 6.99263 2.74515C6.38947 2.14199 5.57142 1.80315 4.71844 1.80315ZM1.44276 1.74367C2.31153 0.874906 3.48982 0.386841 4.71844 0.386841C5.94705 0.386841 7.12534 0.874906 7.99411 1.74367C8.86287 2.61243 9.35093 3.79072 9.35093 5.01934C9.35093 5.62769 9.23111 6.23008 8.99831 6.79212C8.85644 7.13461 8.67432 7.45802 8.45635 7.75577L11.386 10.6854C11.6626 10.962 11.6626 11.4104 11.386 11.6869C11.1095 11.9635 10.6611 11.9635 10.3845 11.6869L7.45487 8.75725C7.15712 8.97522 6.8337 9.15735 6.49122 9.29921C5.92918 9.53201 5.32678 9.65184 4.71844 9.65184C4.11009 9.65184 3.5077 9.53201 2.94566 9.29921C2.38361 9.06641 1.87293 8.72518 1.44276 8.29501C1.0126 7.86484 0.67137 7.35416 0.438565 6.79212C0.205761 6.23008 0.0859375 5.62769 0.0859375 5.01934C0.0859375 3.79072 0.574003 2.61243 1.44276 1.74367Z" fill="#1D2032"/>
</svg>
