<svg width="13" height="13" viewBox="0 0 13 13" fill="none" xmlns="http://www.w3.org/2000/svg">
<path fill-rule="evenodd" clip-rule="evenodd" d="M6.36942 12.2573C7.96071 12.2573 9.48684 11.6252 10.6121 10.5C11.7373 9.37475 12.3694 7.84862 12.3694 6.25732C12.3694 4.66603 11.7373 3.1399 10.6121 2.01468C9.48684 0.889465 7.96071 0.257324 6.36942 0.257324C4.77812 0.257324 3.25199 0.889465 2.12677 2.01468C1.00156 3.1399 0.369415 4.66603 0.369415 6.25732C0.369415 7.84862 1.00156 9.37475 2.12677 10.5C3.25199 11.6252 4.77812 12.2573 6.36942 12.2573ZM7.11942 3.25732C7.11942 3.05841 7.0404 2.86765 6.89974 2.72699C6.75909 2.58634 6.56833 2.50732 6.36942 2.50732C6.1705 2.50732 5.97974 2.58634 5.83909 2.72699C5.69843 2.86765 5.61942 3.05841 5.61942 3.25732V6.25732C5.61946 6.45622 5.6985 6.64695 5.83917 6.78757L7.96017 8.90932C8.02985 8.97901 8.11257 9.03428 8.20362 9.07199C8.29466 9.10971 8.39224 9.12912 8.49079 9.12912C8.58934 9.12912 8.68692 9.10971 8.77796 9.07199C8.86901 9.03428 8.95173 8.97901 9.02142 8.90932C9.0911 8.83964 9.14637 8.75692 9.18409 8.66587C9.2218 8.57483 9.24121 8.47725 9.24121 8.3787C9.24121 8.28015 9.2218 8.18257 9.18409 8.09153C9.14637 8.00048 9.0911 7.91776 9.02142 7.84807L7.11942 5.94682V3.25732Z" fill="#29D391"/>
</svg>
