<svg width="38" height="38" viewBox="0 0 38 38" fill="none" xmlns="http://www.w3.org/2000/svg">
<rect width="38" height="38" rx="8" fill="#474DFF"/>
<path d="M21.9258 13.7216C22.5664 13.0811 23.6094 13.0811 24.25 13.7216C24.8906 14.3622 24.8906 15.4049 24.25 16.0454C23.8789 16.4165 23.3711 16.5844 22.8555 16.5102C22.832 16.5063 22.8047 16.5063 22.7812 16.5102C22.6289 16.4907 22.4687 16.5102 22.3164 16.5805C22.1016 16.6781 21.9492 16.8578 21.875 17.0648C21.8008 17.2679 21.8047 17.4983 21.9023 17.7053C22.4531 18.8965 22.1992 20.322 21.2695 21.2516C20.3398 22.1811 18.9141 22.4349 17.7227 21.8843C17.5078 21.7866 17.2773 21.7827 17.0703 21.8608C16.8672 21.935 16.6953 22.0873 16.5977 22.2982C16.5352 22.4349 16.5117 22.5755 16.5195 22.7161C16.5156 22.7435 16.5156 22.7708 16.5195 22.7982C16.6055 23.3215 16.4336 23.8566 16.0586 24.2315C15.418 24.872 14.375 24.872 13.7344 24.2315C13.4219 23.919 13.2539 23.509 13.2539 23.0676C13.2539 22.6302 13.4258 22.2162 13.7344 21.9038C14.1055 21.5328 14.6133 21.3648 15.1289 21.439C15.1367 21.439 15.1445 21.439 15.1562 21.439C15.2109 21.4507 15.2656 21.4585 15.3242 21.4585C15.4453 21.4585 15.5664 21.4351 15.6797 21.3804C15.8906 21.2828 16.0391 21.111 16.1172 20.9118C16.1953 20.7048 16.1953 20.4704 16.0938 20.2556C15.543 19.0644 15.7969 17.6389 16.7266 16.7094C17.6562 15.7799 19.082 15.526 20.2734 16.0767C20.4844 16.1743 20.7187 16.1782 20.9219 16.104C21.125 16.0298 21.3008 15.8775 21.3984 15.6666C21.4727 15.5026 21.4922 15.3268 21.4648 15.1589V15.155C21.3789 14.6316 21.5508 14.0966 21.9258 13.7216ZM20.3008 20.283C21.0117 19.5722 21.0117 18.42 20.3008 17.7092C19.5898 16.9984 18.4375 16.9984 17.7266 17.7092C17.0156 18.42 17.0156 19.5722 17.7266 20.283C18.4375 20.9938 19.5898 20.9938 20.3008 20.283ZM19 8C25.0742 8 30 12.9249 30 18.998C30 25.0712 25.0781 30 19 30C12.9219 30 8 25.0751 8 18.998C8 12.921 12.9258 8 19 8ZM24.8633 16.6586C25.8359 15.6861 25.8359 14.1122 24.8633 13.1397C23.8906 12.1672 22.3164 12.1672 21.3437 13.1397C20.9844 13.499 20.7578 13.9443 20.6641 14.409C18.9023 13.7451 16.8789 14.1669 15.5313 15.5143C14.1836 16.8617 13.7617 18.8848 14.4297 20.6501C13.9609 20.7438 13.5156 20.9704 13.1523 21.3336C12.1797 22.3061 12.1797 23.88 13.1523 24.8525C14.125 25.825 15.6992 25.825 16.6719 24.8525C17.0352 24.4893 17.2656 24.0362 17.3555 23.5675C17.9023 23.7706 18.4727 23.8722 19.0391 23.8722C20.3008 23.8722 21.5469 23.384 22.4727 22.4584C23.8125 21.1188 24.2383 19.1074 23.5859 17.346C24.0508 17.2484 24.5 17.0218 24.8633 16.6586Z" fill="white"/>
</svg>
