<svg width="14" height="11" viewBox="0 0 14 11" fill="none" xmlns="http://www.w3.org/2000/svg">
<path fill-rule="evenodd" clip-rule="evenodd" d="M5.91357 0.612C6.10104 0.799528 6.20636 1.05384 6.20636 1.319C6.20636 1.58416 6.10104 1.83847 5.91357 2.026L2.62057 5.319L5.91357 8.612C6.09573 8.8006 6.19653 9.0532 6.19425 9.3154C6.19197 9.5776 6.0868 9.82841 5.90139 10.0138C5.71598 10.1992 5.46517 10.3044 5.20297 10.3067C4.94078 10.309 4.68818 10.2082 4.49957 10.026L0.499574 6.026C0.312103 5.83847 0.206787 5.58416 0.206787 5.319C0.206787 5.05384 0.312103 4.79953 0.499574 4.612L4.49957 0.612C4.6871 0.424529 4.94141 0.319214 5.20657 0.319214C5.47174 0.319214 5.72605 0.424529 5.91357 0.612Z" fill="#29D391"/>
<path fill-rule="evenodd" clip-rule="evenodd" d="M7.91992 0.612C7.73245 0.799528 7.62714 1.05384 7.62714 1.319C7.62714 1.58416 7.73245 1.83847 7.91992 2.026L11.2129 5.319L7.91992 8.612C7.73776 8.8006 7.63697 9.0532 7.63925 9.3154C7.64153 9.5776 7.7467 9.82841 7.9321 10.0138C8.11751 10.1992 8.36833 10.3044 8.63052 10.3067C8.89272 10.309 9.14532 10.2082 9.33392 10.026L13.3339 6.026C13.5214 5.83847 13.6267 5.58416 13.6267 5.319C13.6267 5.05384 13.5214 4.79953 13.3339 4.612L9.33392 0.612C9.14639 0.424529 8.89209 0.319214 8.62692 0.319214C8.36176 0.319214 8.10745 0.424529 7.91992 0.612Z" fill="#474DFF"/>
</svg>
