<svg width="18" height="12" viewBox="0 0 18 12" fill="none" xmlns="http://www.w3.org/2000/svg">
<path fill-rule="evenodd" clip-rule="evenodd" d="M0.0546875 6.80197C0.0546875 8.79829 1.67306 10.4167 3.6694 10.4167H7.03969L8.55041 11.9274L10.0612 10.4167L14.6517 10.4167L14.974 10.4166C16.1184 10.4166 17.0462 9.48893 17.0462 8.34451C17.0462 7.20012 16.1184 6.27239 14.974 6.27239C14.8367 6.27239 14.7024 6.28576 14.5725 6.31127C14.6245 6.02223 14.6517 5.72457 14.6517 5.42054C14.6517 2.66126 12.4149 0.424438 9.65557 0.424438C7.59092 0.424438 5.81878 1.6768 5.05737 3.46333C4.63002 3.28545 4.16117 3.18725 3.6694 3.18725C1.67306 3.18725 0.0546875 4.80561 0.0546875 6.80197ZM11.0223 5.23887L7.68402 8.57713L5.65296 6.54608L6.52602 5.67302L7.68402 6.83102L10.1492 4.36582L11.0223 5.23887Z" fill="#A667F6"/>
</svg>
