<svg width="13" height="12" viewBox="0 0 13 12" fill="none" xmlns="http://www.w3.org/2000/svg">
<path fill-rule="evenodd" clip-rule="evenodd" d="M5.04946 1.65814C5.62675 0.631856 7.10355 0.631856 7.68008 1.65814L11.8909 9.144C12.4568 10.1507 11.7301 11.3928 10.5763 11.3928H2.15398C0.999406 11.3928 0.272705 10.1507 0.838671 9.144L5.04946 1.65814ZM7.11939 9.12966C7.11939 9.3298 7.03989 9.52174 6.89837 9.66326C6.75685 9.80478 6.56491 9.88428 6.36477 9.88428C6.16463 9.88428 5.97269 9.80478 5.83117 9.66326C5.68965 9.52174 5.61015 9.3298 5.61015 9.12966C5.61015 8.92952 5.68965 8.73758 5.83117 8.59606C5.97269 8.45454 6.16463 8.37504 6.36477 8.37504C6.56491 8.37504 6.75685 8.45454 6.89837 8.59606C7.03989 8.73758 7.11939 8.92952 7.11939 9.12966ZM6.36477 3.09268C6.16463 3.09268 5.97269 3.17218 5.83117 3.3137C5.68965 3.45522 5.61015 3.64716 5.61015 3.8473V6.11117C5.61015 6.31131 5.68965 6.50325 5.83117 6.64477C5.97269 6.78629 6.16463 6.86579 6.36477 6.86579C6.56491 6.86579 6.75685 6.78629 6.89837 6.64477C7.03989 6.50325 7.11939 6.31131 7.11939 6.11117V3.8473C7.11939 3.64716 7.03989 3.45522 6.89837 3.3137C6.75685 3.17218 6.56491 3.09268 6.36477 3.09268Z" fill="#FCC945"/>
</svg>
