<svg width="36" height="37" viewBox="0 0 36 37" fill="none" xmlns="http://www.w3.org/2000/svg">
<rect x="0.206055" y="0.738281" width="35.4296" height="35.4296" rx="10" fill="#FCC945"/>
<path fill-rule="evenodd" clip-rule="evenodd" d="M17.9211 10.7578C12.9982 10.7578 8.83171 13.9932 7.43115 18.4532C8.83171 22.9132 12.9982 26.1486 17.9211 26.1486C22.8439 26.1486 27.0104 22.9132 28.411 18.4532C27.0104 13.9932 22.8439 10.7578 17.9211 10.7578ZM21.0305 21.5626C21.8551 20.7379 22.3184 19.6195 22.3184 18.4532C22.3184 17.2869 21.8551 16.1685 21.0305 15.3438C20.2058 14.5191 19.0873 14.0558 17.9211 14.0558C16.7548 14.0558 15.6363 14.5191 14.8117 15.3438C13.987 16.1685 13.5237 17.2869 13.5237 18.4532C13.5237 19.6195 13.987 20.7379 14.8117 21.5626C15.6363 22.3873 16.7548 22.8506 17.9211 22.8506C19.0873 22.8506 20.2058 22.3873 21.0305 21.5626ZM19.474 20.0078C19.0617 20.4202 18.5024 20.6518 17.9193 20.6518C17.3362 20.6518 16.7769 20.4202 16.3646 20.0078C15.9523 19.5955 15.7206 19.0363 15.7206 18.4531C15.7206 17.87 15.9523 17.3108 16.3646 16.8984C16.7769 16.4861 17.3362 16.2544 17.9193 16.2544C18.5024 16.2544 19.0617 16.4861 19.474 16.8984C19.8863 17.3108 20.118 17.87 20.118 18.4531C20.118 19.0363 19.8863 19.5955 19.474 20.0078Z" fill="white"/>
</svg>
