<svg width="10" height="8" viewBox="0 0 10 8" fill="none" xmlns="http://www.w3.org/2000/svg">
<path fill-rule="evenodd" clip-rule="evenodd" d="M5.15728 0.506104C2.96821 0.506104 1.11547 1.94479 0.492676 3.92805C1.11547 5.91132 2.96821 7.35 5.15728 7.35C7.34635 7.35 9.19909 5.91132 9.82189 3.92805C9.19909 1.94479 7.34635 0.506104 5.15728 0.506104ZM6.53996 5.31073C6.90667 4.94402 7.11268 4.44666 7.11268 3.92805C7.11268 3.40945 6.90667 2.91208 6.53996 2.54538C6.17325 2.17867 5.67589 1.97265 5.15728 1.97265C4.63868 1.97265 4.14131 2.17867 3.77461 2.54538C3.4079 2.91208 3.20188 3.40945 3.20188 3.92805C3.20188 4.44666 3.4079 4.94402 3.77461 5.31073C4.14131 5.67744 4.63868 5.88345 5.15728 5.88345C5.67589 5.88345 6.17325 5.67744 6.53996 5.31073ZM5.84781 4.61934C5.66446 4.80269 5.41577 4.9057 5.15647 4.9057C4.89717 4.9057 4.64849 4.80269 4.46513 4.61934C4.28178 4.43598 4.17877 4.1873 4.17877 3.928C4.17877 3.6687 4.28178 3.42002 4.46513 3.23666C4.64849 3.05331 4.89717 2.9503 5.15647 2.9503C5.41577 2.9503 5.66446 3.05331 5.84781 3.23666C6.03116 3.42002 6.13417 3.6687 6.13417 3.928C6.13417 4.1873 6.03116 4.43598 5.84781 4.61934Z" fill="#FCC945"/>
</svg>
