<svg width="15" height="11" viewBox="0 0 15 11" fill="none" xmlns="http://www.w3.org/2000/svg">
<path fill-rule="evenodd" clip-rule="evenodd" d="M7.36915 0.853516C4.0841 0.853516 1.30375 2.95565 0.369141 5.85351C1.30375 8.75135 4.0841 10.8535 7.36915 10.8535C10.6542 10.8535 13.4346 8.75135 14.3691 5.85351C13.4346 2.95565 10.6542 0.853516 7.36915 0.853516ZM9.44409 7.87381C9.9944 7.33799 10.3036 6.61126 10.3036 5.85351C10.3036 5.09574 9.9944 4.36902 9.44409 3.8332C8.89378 3.29738 8.14741 2.99637 7.36915 2.99637C6.59091 2.99637 5.84453 3.29738 5.29423 3.8332C4.74392 4.36902 4.43475 5.09574 4.43475 5.85351C4.43475 6.61126 4.74392 7.33799 5.29423 7.87381C5.84453 8.40963 6.59091 8.71064 7.36915 8.71064C8.14741 8.71064 8.89378 8.40963 9.44409 7.87381ZM8.40571 6.86379C8.13055 7.13169 7.75736 7.28221 7.36824 7.28221C6.97912 7.28221 6.60592 7.13169 6.33077 6.86379C6.05561 6.59589 5.90104 6.23252 5.90104 5.85364C5.90104 5.47476 6.05561 5.1114 6.33077 4.84349C6.60592 4.57558 6.97912 4.42507 7.36824 4.42507C7.75736 4.42507 8.13055 4.57558 8.40571 4.84349C8.68086 5.1114 8.83544 5.47476 8.83544 5.85364C8.83544 6.23252 8.68086 6.59589 8.40571 6.86379Z" fill="white"/>
</svg>
