<svg width="14" height="11" viewBox="0 0 14 11" fill="none" xmlns="http://www.w3.org/2000/svg">
<path fill-rule="evenodd" clip-rule="evenodd" d="M7.11122 0.853516C3.94734 0.853516 1.26955 2.93286 0.369415 5.7993C1.26955 8.66573 3.94734 10.7451 7.11122 10.7451C10.2751 10.7451 12.9529 8.66573 13.853 5.7993C12.9529 2.93286 10.2751 0.853516 7.11122 0.853516ZM9.10962 7.7977C9.63963 7.26769 9.93739 6.54884 9.93739 5.7993C9.93739 5.04975 9.63963 4.33091 9.10962 3.8009C8.57961 3.27089 7.86077 2.97314 7.11122 2.97314C6.36168 2.97314 5.64283 3.27089 5.11283 3.8009C4.58282 4.33091 4.28506 5.04975 4.28506 5.7993C4.28506 6.54884 4.58282 7.26769 5.11283 7.7977C5.64283 8.32771 6.36168 8.62546 7.11122 8.62546C7.86077 8.62546 8.57961 8.32771 9.10962 7.7977ZM8.10954 6.79863C7.84453 7.06363 7.48511 7.21251 7.11034 7.21251C6.73557 7.21251 6.37614 7.06363 6.11114 6.79863C5.84613 6.53363 5.69726 6.1742 5.69726 5.79943C5.69726 5.42466 5.84613 5.06524 6.11114 4.80023C6.37614 4.53523 6.73557 4.38635 7.11034 4.38635C7.48511 4.38635 7.84453 4.53523 8.10954 4.80023C8.37454 5.06524 8.52342 5.42466 8.52342 5.79943C8.52342 6.1742 8.37454 6.53363 8.10954 6.79863Z" fill="#FCC945"/>
</svg>
