<?xml version="1.0" encoding="UTF-8"?>
<svg width="835px" height="92px" viewBox="0 0 835 92" version="1.1" xmlns="http://www.w3.org/2000/svg" xmlns:xlink="http://www.w3.org/1999/xlink">
    <!-- Generator: Sketch 63.1 (92452) - https://sketch.com -->
    <title>Group 2</title>
    <desc>Created with Sketch.</desc>
    <g id="Page-1" stroke="none" stroke-width="1" fill="none" fill-rule="evenodd">
        <g id="Artboard-Copy" transform="translate(-383.000000, -421.000000)" fill="#3F416D">
            <g id="Group-2" transform="translate(383.750000, 421.000000)">
                <rect id="Rectangle" x="0" y="40.8888889" width="10" height="51.1111111" rx="5"></rect>
                <rect id="Rectangle-Copy-23" x="152.5" y="40.8888889" width="10" height="51.1111111" rx="5"></rect>
                <rect id="Rectangle-Copy-28" x="305" y="40.8888889" width="10" height="51.1111111" rx="5"></rect>
                <rect id="Rectangle-Copy-33" x="457.5" y="40.8888889" width="10" height="51.1111111" rx="5"></rect>
                <rect id="Rectangle-Copy-38" x="610" y="40.8888889" width="10" height="51.1111111" rx="5"></rect>
                <rect id="Rectangle-Copy-43" x="762.5" y="40.8888889" width="10" height="51.1111111" rx="5"></rect>
                <rect id="Rectangle-Copy-3" x="30.5" y="0" width="10" height="92" rx="5"></rect>
                <rect id="Rectangle-Copy-24" x="183" y="0" width="10" height="92" rx="5"></rect>
                <rect id="Rectangle-Copy-29" x="335.5" y="0" width="10" height="92" rx="5"></rect>
                <rect id="Rectangle-Copy-34" x="488" y="0" width="10" height="92" rx="5"></rect>
                <rect id="Rectangle-Copy-39" x="640.5" y="0" width="10" height="92" rx="5"></rect>
                <rect id="Rectangle-Copy-44" x="793" y="0" width="10" height="92" rx="5"></rect>
                <rect id="Rectangle-Copy-20" x="61" y="28.6222222" width="10" height="63.3777778" rx="5"></rect>
                <rect id="Rectangle-Copy-25" x="213.5" y="28.6222222" width="10" height="63.3777778" rx="5"></rect>
                <rect id="Rectangle-Copy-30" x="366" y="28.6222222" width="10" height="63.3777778" rx="5"></rect>
                <rect id="Rectangle-Copy-35" x="518.5" y="28.6222222" width="10" height="63.3777778" rx="5"></rect>
                <rect id="Rectangle-Copy-40" x="671" y="28.6222222" width="10" height="63.3777778" rx="5"></rect>
                <rect id="Rectangle-Copy-45" x="823.5" y="28.6222222" width="10" height="63.3777778" rx="5"></rect>
                <rect id="Rectangle-Copy-21" x="91.5" y="8.17777778" width="10" height="83.8222222" rx="5"></rect>
                <rect id="Rectangle-Copy-26" x="244" y="8.17777778" width="10" height="83.8222222" rx="5"></rect>
                <rect id="Rectangle-Copy-31" x="396.5" y="8.17777778" width="10" height="83.8222222" rx="5"></rect>
                <rect id="Rectangle-Copy-36" x="549" y="8.17777778" width="10" height="83.8222222" rx="5"></rect>
                <rect id="Rectangle-Copy-41" x="701.5" y="8.17777778" width="10" height="83.8222222" rx="5"></rect>
                <rect id="Rectangle-Copy-22" x="122" y="8.17777778" width="10" height="83.8222222" rx="5"></rect>
                <rect id="Rectangle-Copy-27" x="274.5" y="8.17777778" width="10" height="83.8222222" rx="5"></rect>
                <rect id="Rectangle-Copy-32" x="427" y="8.17777778" width="10" height="83.8222222" rx="5"></rect>
                <rect id="Rectangle-Copy-37" x="579.5" y="8.17777778" width="10" height="83.8222222" rx="5"></rect>
                <rect id="Rectangle-Copy-42" x="732" y="8.17777778" width="10" height="83.8222222" rx="5"></rect>
            </g>
        </g>
    </g>
</svg>