<?xml version="1.0" encoding="UTF-8"?>
<svg width="270px" height="130px" viewBox="0 0 270 130" version="1.1" xmlns="http://www.w3.org/2000/svg" xmlns:xlink="http://www.w3.org/1999/xlink">
    <!-- Generator: Sketch 63.1 (92452) - https://sketch.com -->
    <title>Group</title>
    <desc>Created with Sketch.</desc>
    <defs>
        <path d="M64.6481075,0.703785055 C100.352271,0.703785055 129.296215,29.6477287 129.296215,65.3518925 C129.296215,101.056056 100.352271,130 64.6481075,130 C28.9439436,130 2.58502214e-13,101.056056 2.58502214e-13,65.3518925 C2.58502214e-13,29.6477287 28.9439436,0.703785055 64.6481075,0.703785055 Z M64.6481075,28.2090354 C44.1346739,28.2090354 27.5052503,44.838459 27.5052503,65.3518925 C27.5052503,85.8653261 44.1346739,102.49475 64.6481075,102.49475 C85.161541,102.49475 101.790965,85.8653261 101.790965,65.3518925 C101.790965,44.838459 85.161541,28.2090354 64.6481075,28.2090354 Z" id="path-1"></path>
    </defs>
    <g id="Page-1" stroke="none" stroke-width="1" fill="none" fill-rule="evenodd">
        <g id="Artboard-Copy" transform="translate(-985.000000, -123.000000)">
            <g id="Group" transform="translate(985.900000, 123.000000)">
                <path d="M19.815,76.35 L19.815,75.602 L16.339,75.602 C17.175,74.722 17.978,73.71 18.66,72.731 C19.078,72.126 19.386,71.499 19.386,70.828 C19.386,69.695 18.352,68.914 17.307,68.914 C16.262,68.914 15.305,69.618 15.206,70.641 L15.987,70.806 C16.053,70.124 16.636,69.662 17.274,69.662 C17.945,69.662 18.539,70.124 18.539,70.795 C18.539,71.378 18.231,71.917 17.934,72.357 C17.252,73.391 16.163,74.634 15.316,75.536 L15.316,76.35 L19.815,76.35 Z M23.225,76.482 C24.611,76.482 25.579,75.547 25.579,74.359 C25.579,73.501 25.029,72.841 24.336,72.522 C24.875,72.225 25.359,71.708 25.359,70.905 C25.359,69.794 24.49,68.914 23.225,68.914 C21.96,68.914 21.091,69.794 21.091,70.905 C21.091,71.708 21.575,72.225 22.114,72.522 C21.421,72.841 20.871,73.501 20.871,74.359 C20.871,75.547 21.839,76.482 23.225,76.482 Z M23.225,72.203 C22.499,72.203 21.894,71.609 21.894,70.916 C21.894,70.179 22.499,69.662 23.225,69.662 C23.951,69.662 24.556,70.179 24.556,70.916 C24.556,71.609 23.951,72.203 23.225,72.203 Z M23.225,75.734 C22.378,75.734 21.696,75.162 21.696,74.337 C21.696,73.567 22.378,72.951 23.225,72.951 C24.072,72.951 24.754,73.567 24.754,74.337 C24.754,75.162 24.072,75.734 23.225,75.734 Z M30.936,76.35 L30.936,73.171 L32.344,73.171 C33.576,73.171 34.984,72.566 34.984,70.905 C34.984,69.255 33.565,68.65 32.344,68.65 L30.122,68.65 L30.122,76.35 L30.936,76.35 Z M32.069,72.423 L30.936,72.423 L30.936,69.398 L32.289,69.398 C33.367,69.398 34.115,69.97 34.115,70.927 C34.115,72.038 33.235,72.423 32.069,72.423 Z M38.559,76.482 C40.154,76.482 41.265,75.228 41.265,73.666 C41.265,72.104 40.154,70.85 38.559,70.85 C36.964,70.85 35.853,72.104 35.853,73.666 C35.853,75.228 36.964,76.482 38.559,76.482 Z M38.559,75.8 C37.36,75.8 36.623,74.788 36.623,73.666 C36.623,72.544 37.36,71.532 38.559,71.532 C39.758,71.532 40.495,72.544 40.495,73.666 C40.495,74.788 39.758,75.8 38.559,75.8 Z M46.633,76.482 C47.458,76.482 48.184,76.24 48.789,75.855 L48.36,75.228 C47.821,75.569 47.249,75.734 46.644,75.734 C44.675,75.734 43.355,74.469 43.355,72.5 C43.355,70.608 44.752,69.266 46.633,69.266 C47.194,69.266 47.733,69.42 48.195,69.673 L48.569,69.046 C48.03,68.716 47.337,68.518 46.644,68.518 C44.356,68.518 42.486,70.212 42.486,72.5 C42.486,74.876 44.268,76.482 46.633,76.482 Z M53.882,76.35 L53.882,72.995 L54.894,72.995 L57.314,76.35 L58.326,76.35 C57.908,75.789 56.665,74.117 55.829,72.973 C57.105,72.764 57.831,71.95 57.831,70.817 C57.831,69.255 56.434,68.65 55.279,68.65 L53.068,68.65 L53.068,76.35 L53.882,76.35 Z M55.004,72.247 L53.882,72.247 L53.882,69.398 L55.224,69.398 C56.258,69.398 56.962,69.97 56.962,70.839 C56.962,71.84 56.203,72.247 55.004,72.247 Z M61.802,76.482 C62.616,76.482 63.551,76.064 63.98,75.261 L63.452,74.92 C63.067,75.646 62.462,75.844 61.747,75.844 C60.581,75.844 59.899,74.887 59.833,73.853 L64.068,73.853 C64.079,73.754 64.101,73.534 64.101,73.358 C64.101,72.027 63.1,70.85 61.714,70.85 C60.251,70.85 59.085,72.049 59.085,73.633 C59.085,75.206 60.042,76.482 61.802,76.482 Z M63.364,73.215 L59.855,73.215 C60.009,72.214 60.68,71.488 61.714,71.488 C62.627,71.488 63.32,72.313 63.364,73.215 Z M67.951,76.482 C68.512,76.482 68.974,76.317 69.414,76.02 L69.029,75.448 C68.765,75.646 68.237,75.8 67.896,75.8 C66.653,75.8 65.883,74.876 65.883,73.666 C65.883,72.511 66.653,71.532 67.874,71.532 C68.237,71.532 68.699,71.642 68.996,71.84 L69.271,71.213 C68.886,70.993 68.424,70.85 67.929,70.85 C66.29,70.85 65.113,72.093 65.113,73.666 C65.113,75.272 66.279,76.482 67.951,76.482 Z M72.923,76.482 C73.737,76.482 74.672,76.064 75.101,75.261 L74.573,74.92 C74.188,75.646 73.583,75.844 72.868,75.844 C71.702,75.844 71.02,74.887 70.954,73.853 L75.189,73.853 C75.2,73.754 75.222,73.534 75.222,73.358 C75.222,72.027 74.221,70.85 72.835,70.85 C71.372,70.85 70.206,72.049 70.206,73.633 C70.206,75.206 71.163,76.482 72.923,76.482 Z M74.485,73.215 L70.976,73.215 C71.13,72.214 71.801,71.488 72.835,71.488 C73.748,71.488 74.441,72.313 74.485,73.215 Z M77.477,69.783 L77.477,68.749 L76.729,68.749 L76.729,69.783 L77.477,69.783 Z M77.477,76.35 L77.477,70.982 L76.729,70.982 L76.729,76.35 L77.477,76.35 Z M80.227,79.1 L80.227,75.822 C80.689,76.251 81.338,76.482 81.943,76.482 C83.516,76.482 84.704,75.173 84.704,73.644 C84.704,72.115 83.527,70.85 81.954,70.85 C81.294,70.85 80.634,71.136 80.227,71.675 L80.227,70.982 L79.479,70.982 L79.479,79.1 L80.227,79.1 Z M81.932,75.8 C81.316,75.8 80.623,75.47 80.227,74.953 L80.227,72.544 C80.535,71.917 81.272,71.532 81.932,71.532 C83.109,71.532 83.934,72.533 83.934,73.688 C83.934,74.832 83.098,75.8 81.932,75.8 Z M87.883,76.449 C88.202,76.449 88.499,76.35 88.741,76.218 L88.554,75.624 C88.312,75.712 88.092,75.767 87.894,75.767 C87.399,75.767 87.069,75.591 87.069,74.623 L87.069,71.664 L88.631,71.664 L88.631,70.982 L88.631,70.982 L87.069,70.982 L87.069,69.64 L86.321,69.64 L86.321,70.982 L85.562,70.982 L85.562,71.664 L86.321,71.664 L86.321,74.711 C86.321,75.822 86.838,76.449 87.883,76.449 Z M91.183,76.482 C92.085,76.482 93.075,75.91 93.075,74.964 C93.075,74.007 92.426,73.633 91.766,73.358 C91.084,73.072 90.391,72.863 90.391,72.225 C90.391,71.719 90.919,71.488 91.337,71.488 C91.733,71.488 92.129,71.642 92.426,71.873 L92.833,71.367 C92.415,71.026 91.92,70.85 91.359,70.85 C90.457,70.85 89.687,71.367 89.687,72.291 C89.687,73.27 90.446,73.589 91.15,73.875 C91.755,74.117 92.327,74.337 92.327,74.953 C92.327,75.569 91.722,75.844 91.205,75.844 C90.699,75.844 90.292,75.624 89.973,75.283 L89.522,75.756 C89.962,76.24 90.578,76.482 91.183,76.482 Z" id="28PoCReceipts" fill="#FFFFFF" fill-rule="nonzero"></path>
                <path d="M3.212,53.7 L3.212,46.946 L5.148,46.946 L5.148,46 L0.22,46 L0.22,46.946 L2.156,46.946 L2.156,53.7 L3.212,53.7 Z M8.194,53.7 L10.35,50.653 L12.583,53.7 L13.914,53.7 L11.076,49.806 L13.87,46 L12.561,46 L10.438,48.959 L8.304,46 L6.951,46 L9.69,49.784 L6.863,53.7 L8.194,53.7 Z M21.502,53.7 C22.195,53.7 22.943,53.634 23.526,53.392 C24.296,53.062 24.78,52.38 24.78,51.511 C24.78,50.598 24.274,49.971 23.284,49.674 C24.131,49.344 24.461,48.805 24.461,48.079 C24.461,47.408 24.186,46.836 23.647,46.484 C23.086,46.121 22.327,46 21.601,46 L19.764,46 L19.764,53.7 L21.502,53.7 Z M21.557,49.3 L20.82,49.3 L20.82,46.924 L21.348,46.924 C22.008,46.924 22.569,46.957 22.965,47.21 C23.24,47.386 23.405,47.661 23.405,48.134 C23.405,48.937 22.712,49.3 21.557,49.3 Z M21.403,52.776 L20.82,52.776 L20.82,50.224 L22.052,50.224 C23.097,50.224 23.658,50.752 23.658,51.522 C23.658,52.05 23.405,52.369 23.031,52.545 C22.602,52.743 22.041,52.776 21.403,52.776 Z M28.541,53.7 L28.541,50.444 L29.333,50.444 L31.643,53.7 L32.963,53.7 L30.521,50.378 C31.467,50.18 32.402,49.52 32.402,48.211 C32.402,46.616 30.95,46 29.773,46 L27.485,46 L27.485,53.7 L28.541,53.7 Z M29.498,49.498 L28.541,49.498 L28.541,46.946 L29.718,46.946 C30.653,46.946 31.28,47.463 31.28,48.244 C31.28,49.124 30.521,49.498 29.498,49.498 Z M39.848,53.7 L39.848,52.754 L36.284,52.754 L36.284,50.202 L39.848,50.202 L39.848,49.256 L36.284,49.256 L36.284,46.946 L39.848,46.946 L39.848,46 L35.228,46 L35.228,53.7 L39.848,53.7 Z M43.048,53.7 L43.642,52.061 L46.92,52.061 L47.525,53.7 L48.746,53.7 L45.798,46 L44.874,46 L41.893,53.7 L43.048,53.7 Z M46.579,51.115 L43.994,51.115 L45.281,47.606 L45.292,47.606 L46.579,51.115 Z M52.067,53.7 L52.067,51.379 L53.31,49.894 L55.51,53.7 L56.742,53.7 L54.025,49.036 L56.588,46 L55.301,46 L52.067,49.927 L52.067,46 L51.011,46 L51.011,53.7 L52.067,53.7 Z M60.811,53.7 C62.901,53.7 65.057,52.666 65.057,49.817 C65.057,47.034 62.879,46 60.921,46 L58.842,46 L58.842,53.7 L60.811,53.7 Z M60.261,52.754 L59.898,52.754 L59.898,46.946 L60.723,46.946 C62.747,46.946 63.935,47.969 63.935,49.916 C63.935,52.061 62.461,52.754 60.261,52.754 Z M71.337,53.832 C73.581,53.832 75.297,52.05 75.297,49.85 C75.297,47.65 73.581,45.868 71.337,45.868 C69.093,45.868 67.377,47.65 67.377,49.85 C67.377,52.05 69.093,53.832 71.337,53.832 Z M71.337,52.886 C69.698,52.886 68.499,51.555 68.499,49.85 C68.499,48.145 69.698,46.814 71.337,46.814 C72.976,46.814 74.175,48.145 74.175,49.85 C74.175,51.555 72.976,52.886 71.337,52.886 Z M80.268,53.7 L81.94,47.837 L81.962,47.837 L83.502,53.7 L84.558,53.7 L86.758,46 L85.636,46 L84.019,51.808 L83.997,51.808 L82.457,46 L81.467,46 L79.85,51.808 L79.828,51.808 L78.288,46 L77.122,46 L79.234,53.7 L80.268,53.7 Z M90.024,53.7 L90.024,47.958 L94.248,53.7 L95.183,53.7 L95.183,46 L94.127,46 L94.127,51.742 L89.892,46 L88.968,46 L88.968,53.7 L90.024,53.7 Z" id="TXBREAKDOWN" fill="#FFFFFF" fill-rule="nonzero"></path>
                <path d="M19.815,91.65 L19.815,90.902 L16.339,90.902 C17.175,90.022 17.978,89.01 18.66,88.031 C19.078,87.426 19.386,86.799 19.386,86.128 C19.386,84.995 18.352,84.214 17.307,84.214 C16.262,84.214 15.305,84.918 15.206,85.941 L15.987,86.106 C16.053,85.424 16.636,84.962 17.274,84.962 C17.945,84.962 18.539,85.424 18.539,86.095 C18.539,86.678 18.231,87.217 17.934,87.657 C17.252,88.691 16.163,89.934 15.316,90.836 L15.316,91.65 L19.815,91.65 Z M23.225,91.782 C24.611,91.782 25.579,90.847 25.579,89.659 C25.579,88.801 25.029,88.141 24.336,87.822 C24.875,87.525 25.359,87.008 25.359,86.205 C25.359,85.094 24.49,84.214 23.225,84.214 C21.96,84.214 21.091,85.094 21.091,86.205 C21.091,87.008 21.575,87.525 22.114,87.822 C21.421,88.141 20.871,88.801 20.871,89.659 C20.871,90.847 21.839,91.782 23.225,91.782 Z M23.225,87.503 C22.499,87.503 21.894,86.909 21.894,86.216 C21.894,85.479 22.499,84.962 23.225,84.962 C23.951,84.962 24.556,85.479 24.556,86.216 C24.556,86.909 23.951,87.503 23.225,87.503 Z M23.225,91.034 C22.378,91.034 21.696,90.462 21.696,89.637 C21.696,88.867 22.378,88.251 23.225,88.251 C24.072,88.251 24.754,88.867 24.754,89.637 C24.754,90.462 24.072,91.034 23.225,91.034 Z M30.936,91.65 L30.936,88.471 L32.344,88.471 C33.576,88.471 34.984,87.866 34.984,86.205 C34.984,84.555 33.565,83.95 32.344,83.95 L30.122,83.95 L30.122,91.65 L30.936,91.65 Z M32.069,87.723 L30.936,87.723 L30.936,84.698 L32.289,84.698 C33.367,84.698 34.115,85.27 34.115,86.227 C34.115,87.338 33.235,87.723 32.069,87.723 Z M38.559,91.782 C40.154,91.782 41.265,90.528 41.265,88.966 C41.265,87.404 40.154,86.15 38.559,86.15 C36.964,86.15 35.853,87.404 35.853,88.966 C35.853,90.528 36.964,91.782 38.559,91.782 Z M38.559,91.1 C37.36,91.1 36.623,90.088 36.623,88.966 C36.623,87.844 37.36,86.832 38.559,86.832 C39.758,86.832 40.495,87.844 40.495,88.966 C40.495,90.088 39.758,91.1 38.559,91.1 Z M46.633,91.782 C47.458,91.782 48.184,91.54 48.789,91.155 L48.36,90.528 C47.821,90.869 47.249,91.034 46.644,91.034 C44.675,91.034 43.355,89.769 43.355,87.8 C43.355,85.908 44.752,84.566 46.633,84.566 C47.194,84.566 47.733,84.72 48.195,84.973 L48.569,84.346 C48.03,84.016 47.337,83.818 46.644,83.818 C44.356,83.818 42.486,85.512 42.486,87.8 C42.486,90.176 44.268,91.782 46.633,91.782 Z M56.797,91.782 C57.622,91.782 58.348,91.54 58.953,91.155 L58.524,90.528 C57.985,90.869 57.413,91.034 56.808,91.034 C54.839,91.034 53.519,89.769 53.519,87.8 C53.519,85.908 54.916,84.566 56.797,84.566 C57.358,84.566 57.897,84.72 58.359,84.973 L58.733,84.346 C58.194,84.016 57.501,83.818 56.808,83.818 C54.52,83.818 52.65,85.512 52.65,87.8 C52.65,90.176 54.432,91.782 56.797,91.782 Z M61.098,91.65 L61.098,88.086 C61.45,87.404 62.099,86.832 62.902,86.832 C64.101,86.832 64.288,87.855 64.288,88.867 L64.288,91.65 L65.036,91.65 L65.036,88.746 C65.036,87.129 64.541,86.15 63.012,86.15 C62.187,86.15 61.527,86.513 61.098,87.228 L61.098,83.4 L60.35,83.4 L60.35,91.65 L61.098,91.65 Z M68.424,91.782 C69.04,91.782 69.667,91.584 70.184,91.023 L70.239,91.65 L70.91,91.65 L70.91,88.372 C70.91,86.986 70.415,86.15 68.82,86.15 C68.116,86.15 67.28,86.392 66.785,86.623 L67.038,87.294 C67.456,87.063 68.16,86.832 68.787,86.832 C69.722,86.832 70.162,87.327 70.162,88.218 L70.162,88.515 C69.678,88.394 69.304,88.35 68.941,88.35 C67.797,88.35 66.565,88.867 66.565,90.187 C66.565,91.199 67.434,91.782 68.424,91.782 Z M68.446,91.166 C67.819,91.166 67.313,90.748 67.313,90.099 C67.313,89.263 68.171,88.966 68.908,88.966 C69.293,88.966 69.7,89.01 70.162,89.12 L70.162,90.363 C69.656,90.847 69.062,91.166 68.446,91.166 Z M73.583,91.65 L73.583,83.4 L72.835,83.4 L72.835,91.65 L73.583,91.65 Z M76.333,91.65 L76.333,83.4 L75.585,83.4 L75.585,91.65 L76.333,91.65 Z M80.557,91.782 C81.371,91.782 82.306,91.364 82.735,90.561 L82.207,90.22 C81.822,90.946 81.217,91.144 80.502,91.144 C79.336,91.144 78.654,90.187 78.588,89.153 L82.823,89.153 C82.834,89.054 82.856,88.834 82.856,88.658 C82.856,87.327 81.855,86.15 80.469,86.15 C79.006,86.15 77.84,87.349 77.84,88.933 C77.84,90.506 78.797,91.782 80.557,91.782 Z M82.119,88.515 L78.61,88.515 C78.764,87.514 79.435,86.788 80.469,86.788 C81.382,86.788 82.075,87.613 82.119,88.515 Z M85.111,91.65 L85.111,88.086 C85.463,87.404 86.112,86.832 86.915,86.832 C88.114,86.832 88.301,87.855 88.301,88.867 L88.301,91.65 L89.049,91.65 L89.049,88.746 C89.049,87.129 88.554,86.15 87.025,86.15 C86.2,86.15 85.54,86.513 85.111,87.228 L85.111,86.282 L84.363,86.282 L84.363,91.65 L85.111,91.65 Z M92.998,94.07 C94.428,94.07 95.704,93.234 95.704,91.342 L95.704,86.282 L94.956,86.282 L94.956,86.81 C94.494,86.381 93.845,86.15 93.24,86.15 C91.667,86.15 90.479,87.459 90.479,88.922 C90.479,90.385 91.656,91.65 93.229,91.65 C93.889,91.65 94.549,91.364 94.956,90.825 L94.956,91.573 C94.956,92.893 93.999,93.388 92.987,93.388 C92.217,93.388 91.425,93.058 90.952,92.684 L90.644,93.311 C91.315,93.762 92.173,94.07 92.998,94.07 Z M93.251,90.968 C92.074,90.968 91.249,89.967 91.249,88.878 C91.249,87.8 92.085,86.832 93.251,86.832 C93.867,86.832 94.56,87.162 94.956,87.679 L94.956,89.956 C94.648,90.583 93.911,90.968 93.251,90.968 Z M99.851,91.782 C100.665,91.782 101.6,91.364 102.029,90.561 L101.501,90.22 C101.116,90.946 100.511,91.144 99.796,91.144 C98.63,91.144 97.948,90.187 97.882,89.153 L102.117,89.153 C102.128,89.054 102.15,88.834 102.15,88.658 C102.15,87.327 101.149,86.15 99.763,86.15 C98.3,86.15 97.134,87.349 97.134,88.933 C97.134,90.506 98.091,91.782 99.851,91.782 Z M101.413,88.515 L97.904,88.515 C98.058,87.514 98.729,86.788 99.763,86.788 C100.676,86.788 101.369,87.613 101.413,88.515 Z M104.922,91.782 C105.824,91.782 106.814,91.21 106.814,90.264 C106.814,89.307 106.165,88.933 105.505,88.658 C104.823,88.372 104.13,88.163 104.13,87.525 C104.13,87.019 104.658,86.788 105.076,86.788 C105.472,86.788 105.868,86.942 106.165,87.173 L106.572,86.667 C106.154,86.326 105.659,86.15 105.098,86.15 C104.196,86.15 103.426,86.667 103.426,87.591 C103.426,88.57 104.185,88.889 104.889,89.175 C105.494,89.417 106.066,89.637 106.066,90.253 C106.066,90.869 105.461,91.144 104.944,91.144 C104.438,91.144 104.031,90.924 103.712,90.583 L103.261,91.056 C103.701,91.54 104.317,91.782 104.922,91.782 Z" id="28PoCChallenges" fill="#FFFFFF" fill-rule="nonzero"></path>
                <circle id="Oval-Copy-2" fill="#29D391" cx="3.7" cy="72.35" r="3.7"></circle>
                <circle id="Oval-Copy-3" fill="#38A2FF" cx="3.7" cy="87.65" r="3.7"></circle>
                <g id="Rectangle" transform="translate(139.700000, 0.000000)">
                    <mask id="mask-2" fill="white">
                        <use xlink:href="#path-1"></use>
                    </mask>
                    <use id="Mask" fill="#29D391" xlink:href="#path-1"></use>
                    <rect stroke="#27284B" stroke-width="3" fill="#38A2FF" mask="url(#mask-2)" x="64.6481075" y="-26.3095238" width="96.7261905" height="171.785714"></rect>
                </g>
            </g>
        </g>
    </g>
</svg>